<svg width="260" height="183" viewBox="0 0 260 183" fill="none" xmlns="http://www.w3.org/2000/svg">
<path opacity="0.05" d="M0 121.604C0 97.5736 7.00644 74.8636 21.0193 53.474C35.0322 31.8203 53.1576 13.9957 75.3954 0L110.123 24.1623C94.587 32.8766 81.031 44.3636 69.4552 58.6234C57.8793 72.8831 51.4821 86.4827 50.2636 99.4221L55.29 99.026C58.3363 98.7619 60.7733 98.6299 62.6011 98.6299C75.7001 98.6299 86.362 102.591 94.587 110.513C103.117 118.171 107.381 128.074 107.381 140.221C107.381 152.104 102.507 162.271 92.7592 170.721C83.3158 178.907 71.7399 183 58.0316 183C41.5817 183 27.7211 177.587 16.4499 166.76C5.4833 155.669 0 140.617 0 121.604ZM149.42 121.604C149.42 97.8377 156.426 75.1277 170.439 53.474C184.452 31.8203 202.73 13.9957 225.272 0L260 24.1623C244.769 32.6126 231.365 44.0996 219.789 58.6234C208.518 72.8831 201.968 86.4827 200.141 99.4221L204.71 99.026C207.756 98.7619 210.193 98.6299 212.021 98.6299C225.12 98.6299 236.087 102.591 244.921 110.513C253.755 118.435 258.172 128.338 258.172 140.221C258.172 151.84 253.146 161.874 243.093 170.325C233.345 178.775 221.465 183 207.452 183C191.002 183 177.141 177.587 165.87 166.76C154.903 155.669 149.42 140.617 149.42 121.604Z" fill="#333333"/>
</svg>
