<svg width="50" height="50" viewBox="0 0 50 50" fill="none" xmlns="http://www.w3.org/2000/svg">
<path d="M28.0312 1V22.0062H48.9985C48.9985 16.4418 46.7907 11.1047 42.8597 7.16636C38.9287 3.22805 33.5957 1.01033 28.0312 1Z" fill="white" stroke="#4DAF7C" stroke-linecap="round" stroke-linejoin="round"/>
<path d="M22.0042 7.06641C17.851 7.06682 13.7912 8.29835 10.3377 10.6054C6.8842 12.9124 4.19209 16.1913 2.60154 20.0278C1.01099 23.8643 0.593386 28.0863 1.40151 32.16C2.20963 36.2338 4.20721 39.9766 7.1418 42.9155L22.0042 28.0727V7.06641Z" fill="#F5F0EC" stroke="#5B5147" stroke-linecap="round" stroke-linejoin="round"/>
<path d="M42.9936 28.0156H22.0069L7.14453 42.8585C10.0822 45.7919 13.8232 47.7891 17.8952 48.5978C21.9672 49.4066 26.1875 48.9906 30.0232 47.4025C33.8589 45.8143 37.1381 43.1253 39.4466 39.6748C41.7551 36.2243 42.9894 32.1671 42.9936 28.0156Z" fill="#F5F0EC" stroke="#5B5147" stroke-linecap="round" stroke-linejoin="round"/>
</svg>
