<svg width="55" height="50" viewBox="0 0 55 50" fill="none" xmlns="http://www.w3.org/2000/svg">
<path d="M27.8075 48.9993H10.6355C10.3698 48.9989 10.1073 48.9415 9.86567 48.8309C9.62404 48.7204 9.40896 48.5593 9.23494 48.3585C9.06091 48.1577 8.93201 47.9219 8.85693 47.667C8.78185 47.4121 8.76234 47.1441 8.79972 46.881L11.3416 29.1301C16.5947 28.2639 21.9542 28.2639 27.2073 29.1301L29.6927 46.8598C29.7329 47.1285 29.7139 47.4026 29.637 47.6631C29.5602 47.9237 29.4273 48.1643 29.2477 48.368C29.0682 48.5718 28.8462 48.7339 28.5974 48.843C28.3486 48.952 28.079 49.0053 27.8075 48.9993Z" fill="#F5F0EC" stroke="#5B5147" stroke-linecap="round" stroke-linejoin="round"/>
<path d="M35.5465 29.4282C35.5465 29.8028 35.3977 30.162 35.1328 30.4268C34.868 30.6916 34.5088 30.8404 34.1343 30.8404C31.8439 30.154 29.5203 29.5837 27.1723 29.1317C21.9307 28.2694 16.5835 28.2694 11.3419 29.1317C8.9869 29.5716 6.65609 30.1325 4.35877 30.8122C3.98424 30.8122 3.62505 30.6634 3.36022 30.3985C3.09538 30.1337 2.9466 29.7745 2.9466 29.4C2.9466 28.475 2.48059 25.6719 19.2571 25.6719C36.0337 25.6719 35.5465 28.5033 35.5465 29.4282Z" fill="#F5F0EC"/>
<path d="M18.6049 25.6977C16.4867 25.6977 13.8318 25.8036 13.8318 25.8036L12.6879 19.3359C12.6351 18.6725 12.838 18.014 13.2552 17.4955C13.6724 16.9771 14.2722 16.6379 14.9315 16.5476C15.5909 16.4572 16.2598 16.6226 16.801 17.0098C17.3423 17.397 17.7148 17.9766 17.8423 18.6298L18.6049 25.6977Z" fill="white"/>
<path d="M18.6049 25.6977C16.4867 25.6977 13.8318 25.8036 13.8318 25.8036L12.6879 19.3359C12.6351 18.6725 12.838 18.014 13.2552 17.4955C13.6724 16.9771 14.2722 16.6379 14.9315 16.5476C15.5909 16.4572 16.2598 16.6226 16.801 17.0098C17.3423 17.397 17.7148 17.9766 17.8423 18.6298L18.6049 25.6977Z" stroke="#5B5147" stroke-linecap="round" stroke-linejoin="round"/>
<path d="M19.8633 25.6988C21.9815 25.6988 24.6293 25.8047 24.6293 25.8047L25.7732 19.337C25.8509 18.6621 25.6612 17.9836 25.2447 17.4468C24.8282 16.9101 24.2181 16.5579 23.545 16.4655C22.8719 16.3732 22.1895 16.5481 21.6438 16.9529C21.0982 17.3576 20.7328 17.96 20.6259 18.6309L19.8633 25.6988Z" fill="white"/>
<path d="M19.8633 25.6988C21.9815 25.6988 24.6293 25.8047 24.6293 25.8047L25.7732 19.337C25.8509 18.6621 25.6612 17.9836 25.2447 17.4468C24.8282 16.9101 24.2181 16.5579 23.545 16.4655C22.8719 16.3732 22.1895 16.5481 21.6438 16.9529C21.0982 17.3576 20.7328 17.96 20.6259 18.6309L19.8633 25.6988Z" stroke="#5B5147" stroke-linecap="round" stroke-linejoin="round"/>
<path d="M10.8676 32.2227L10.2109 36.8828H28.2584L27.6018 32.2227H10.8676Z" fill="white" stroke="#5B5147" stroke-linecap="round" stroke-linejoin="round"/>
<path d="M19.2337 25.6992C2.45715 25.6992 2.92317 28.5236 2.92317 29.4273C2.92317 29.8019 3.07195 30.1611 3.33678 30.4259C3.60161 30.6907 3.9608 30.8395 4.33533 30.8395C4.91432 30.8395 10.45 28.5094 19.2478 28.5094C28.0456 28.5094 33.5813 30.8395 34.1603 30.8395C34.5348 30.8395 34.894 30.6907 35.1588 30.4259C35.4237 30.1611 35.5724 29.8019 35.5724 29.4273C35.5442 28.5024 36.0102 25.6992 19.2337 25.6992Z" stroke="#5B5147" stroke-miterlimit="10"/>
<path d="M27.1719 29.1462V29.125" stroke="#5B5147" stroke-linecap="round" stroke-linejoin="round"/>
<path d="M11.3047 29.1462V29.125" stroke="#5B5147" stroke-linecap="round" stroke-linejoin="round"/>
<path d="M32.3811 18.2787C32.1787 18.2938 31.982 18.3524 31.8043 18.4504C31.6266 18.5484 31.4721 18.6836 31.3514 18.8467C31.2306 19.0098 31.1465 19.197 31.1046 19.3956C31.0627 19.5942 31.0642 19.7994 31.1088 19.9974C31.1534 20.1954 31.2402 20.3814 31.3632 20.5428C31.4862 20.7042 31.6425 20.8372 31.8215 20.9328C32.0006 21.0283 32.1981 21.0841 32.4007 21.0965C32.6032 21.1088 32.8061 21.0773 32.9954 21.0041L52.9987 16.464C53.2395 16.4084 53.4487 16.2601 53.5809 16.0513C53.7131 15.8424 53.7576 15.5899 53.7048 15.3484L53.493 14.4376C53.4671 14.3174 53.4176 14.2036 53.3473 14.1028C53.2769 14.0019 53.1872 13.9162 53.0833 13.8504C52.9795 13.7847 52.8635 13.7403 52.7423 13.7199C52.6211 13.6995 52.497 13.7034 52.3774 13.7315L32.3811 18.2787Z" fill="#F5F0EC"/>
<path d="M32.3811 18.2779C32.1787 18.293 31.982 18.3516 31.8043 18.4496C31.6266 18.5476 31.4721 18.6828 31.3514 18.8459C31.2306 19.009 31.1465 19.1962 31.1046 19.3948C31.0627 19.5934 31.0642 19.7986 31.1088 19.9966C31.1534 20.1946 31.2402 20.3806 31.3632 20.542C31.4862 20.7034 31.6425 20.8364 31.8215 20.932C32.0006 21.0275 32.1981 21.0833 32.4007 21.0957C32.6032 21.108 32.8061 21.0765 32.9954 21.0033L38.4534 19.7606L37.832 17.0352L32.3811 18.2779Z" fill="white"/>
<path d="M32.3811 18.2779C32.1787 18.293 31.982 18.3516 31.8043 18.4496C31.6266 18.5476 31.4721 18.6828 31.3514 18.8459C31.2306 19.009 31.1465 19.1962 31.1046 19.3948C31.0627 19.5934 31.0642 19.7986 31.1088 19.9966C31.1534 20.1946 31.2402 20.3806 31.3632 20.542C31.4862 20.7034 31.6425 20.8364 31.8215 20.932C32.0006 21.0275 32.1981 21.0833 32.4007 21.0957C32.6032 21.108 32.8061 21.0765 32.9954 21.0033L38.4534 19.7606L37.832 17.0352L32.3811 18.2779Z" stroke="#5B5147" stroke-linecap="round" stroke-linejoin="round"/>
<path d="M32.3811 18.2787C32.1787 18.2938 31.982 18.3524 31.8043 18.4504C31.6266 18.5484 31.4721 18.6836 31.3514 18.8467C31.2306 19.0098 31.1465 19.197 31.1046 19.3956C31.0627 19.5942 31.0642 19.7994 31.1088 19.9974C31.1534 20.1954 31.2402 20.3814 31.3632 20.5428C31.4862 20.7042 31.6425 20.8372 31.8215 20.9328C32.0006 21.0283 32.1981 21.0841 32.4007 21.0965C32.6032 21.1088 32.8061 21.0773 32.9954 21.0041L52.9987 16.464C53.2395 16.4084 53.4487 16.2601 53.5809 16.0513C53.7131 15.8424 53.7576 15.5899 53.7048 15.3484L53.493 14.4376C53.4671 14.3174 53.4176 14.2036 53.3473 14.1028C53.2769 14.0019 53.1872 13.9162 53.0833 13.8504C52.9795 13.7847 52.8635 13.7403 52.7423 13.7199C52.6211 13.6995 52.497 13.7034 52.3774 13.7315L32.3811 18.2787Z" stroke="#5B5147" stroke-linecap="round" stroke-linejoin="round"/>
<path d="M43.1162 25.0267C43.155 24.9494 43.2145 24.8844 43.2881 24.839C43.3616 24.7936 43.4464 24.7695 43.5328 24.7695C43.6193 24.7695 43.704 24.7936 43.7776 24.839C43.8512 24.8844 43.9107 24.9494 43.9494 25.0267L44.2954 25.7328C44.3296 25.8003 44.3795 25.8586 44.441 25.9028C44.5024 25.9471 44.5736 25.9759 44.6484 25.987L45.4181 26.0999C45.5045 26.1131 45.5858 26.1497 45.653 26.2057C45.7202 26.2617 45.7708 26.335 45.7994 26.4177C45.825 26.4999 45.8274 26.5877 45.8062 26.6712C45.785 26.7547 45.7411 26.8307 45.6793 26.8907L45.1215 27.4415C45.0663 27.4928 45.025 27.5573 45.0015 27.6289C44.9781 27.7006 44.9732 27.777 44.9874 27.851L45.1145 28.6206C45.13 28.7067 45.121 28.7953 45.0885 28.8765C45.0561 28.9576 45.0014 29.028 44.9309 29.0796C44.8582 29.1261 44.7736 29.1509 44.6873 29.1509C44.6009 29.1509 44.5164 29.1261 44.4437 29.0796L43.7376 28.7124C43.6699 28.6777 43.5948 28.6596 43.5187 28.6596C43.4426 28.6596 43.3676 28.6777 43.2998 28.7124L42.5937 29.0796C42.521 29.1261 42.4365 29.1509 42.3501 29.1509C42.2638 29.1509 42.1793 29.1261 42.1065 29.0796C42.0347 29.0289 41.9787 28.9589 41.9449 28.8777C41.9112 28.7964 41.9011 28.7073 41.9159 28.6206L42.0501 27.851C42.0642 27.777 42.0594 27.7006 42.0359 27.6289C42.0124 27.5573 41.9711 27.4928 41.9159 27.4415L41.3581 26.8907C41.2949 26.8317 41.25 26.7557 41.2287 26.6718C41.2074 26.5879 41.2107 26.4997 41.2381 26.4177C41.2661 26.3359 41.3156 26.2633 41.3815 26.2074C41.4474 26.1514 41.5271 26.1143 41.6123 26.0999L42.389 25.987C42.4639 25.9759 42.535 25.9471 42.5965 25.9028C42.6579 25.8586 42.7078 25.8003 42.742 25.7328L43.1162 25.0267Z" stroke="#4DAF7C" stroke-linecap="round" stroke-linejoin="round"/>
<path d="M4.56917 8.25345C4.60854 8.17483 4.66903 8.10875 4.74386 8.0626C4.81869 8.01646 4.9049 7.99207 4.99282 7.99219C5.07989 7.99174 5.16529 8.01606 5.23906 8.06232C5.31282 8.10858 5.3719 8.17487 5.40941 8.25345L6.27789 10.0187C6.31302 10.0855 6.3632 10.1432 6.42447 10.1873C6.48573 10.2315 6.55642 10.2607 6.63093 10.2728L8.57972 10.5553C8.66619 10.5685 8.74741 10.6051 8.8146 10.6611C8.8818 10.7171 8.93242 10.7903 8.96101 10.873C8.98571 10.9565 8.98761 11.045 8.9665 11.1295C8.94539 11.2139 8.90204 11.2911 8.84097 11.3531L7.42881 12.7653C7.37358 12.8166 7.33229 12.8811 7.30883 12.9528C7.28536 13.0244 7.28048 13.1008 7.29465 13.1748L7.62651 15.1166C7.6404 15.2025 7.63066 15.2906 7.59832 15.3715C7.56598 15.4523 7.51227 15.5229 7.44293 15.5755C7.36883 15.6219 7.2832 15.6465 7.1958 15.6465C7.1084 15.6465 7.02277 15.6219 6.94867 15.5755L5.20464 14.6576C5.13815 14.623 5.06427 14.6049 4.98929 14.6049C4.91431 14.6049 4.84043 14.623 4.77394 14.6576L3.02991 15.5755C2.95581 15.6219 2.87018 15.6465 2.78278 15.6465C2.69538 15.6465 2.60975 15.6219 2.53565 15.5755C2.46631 15.5229 2.4126 15.4523 2.38026 15.3715C2.34792 15.2906 2.33818 15.2025 2.35207 15.1166L2.68393 13.1748C2.6981 13.1008 2.69322 13.0244 2.66975 12.9528C2.64629 12.8811 2.605 12.8166 2.54977 12.7653L1.13761 11.3531C1.07574 11.2917 1.03236 11.2141 1.01239 11.1293C0.992417 11.0444 0.996659 10.9556 1.02463 10.873C1.05053 10.7901 1.09944 10.7162 1.16569 10.6599C1.23194 10.6037 1.3128 10.5674 1.39886 10.5553L3.34765 10.2728C3.42254 10.2618 3.49369 10.233 3.55512 10.1887C3.61655 10.1445 3.66647 10.0862 3.70069 10.0187L4.56917 8.25345Z" stroke="#4DAF7C" stroke-linecap="round" stroke-linejoin="round"/>
<path d="M29.1898 1.26126C29.2298 1.18316 29.2904 1.11751 29.3651 1.07145C29.4398 1.02539 29.5257 1.00068 29.6134 1.00001C29.7005 0.999551 29.7859 1.02387 29.8597 1.07013C29.9334 1.11639 29.9925 1.18268 30.03 1.26126L31.4422 4.08559C31.4754 4.15385 31.5251 4.21281 31.5867 4.25717C31.6483 4.30153 31.72 4.32992 31.7952 4.33978L34.9373 4.79873C35.0237 4.8099 35.1051 4.84542 35.1721 4.90116C35.239 4.95689 35.2888 5.03052 35.3154 5.11346C35.3421 5.19639 35.3446 5.2852 35.3226 5.36951C35.3007 5.45381 35.2552 5.53013 35.1915 5.58955L32.9179 7.81371C32.8652 7.8668 32.8256 7.93147 32.8023 8.00258C32.779 8.07368 32.7727 8.14924 32.7838 8.22324L33.3204 11.3512C33.3359 11.4372 33.3269 11.5259 33.2945 11.607C33.262 11.6882 33.2074 11.7586 33.1368 11.8101C33.0675 11.8621 32.9848 11.893 32.8984 11.8993C32.812 11.9056 32.7257 11.8869 32.6496 11.8454L29.8253 10.3697C29.7598 10.3319 29.6855 10.312 29.6099 10.312C29.5343 10.312 29.46 10.3319 29.3946 10.3697L26.5702 11.8454C26.4929 11.8866 26.4054 11.9052 26.318 11.8989C26.2306 11.8927 26.1467 11.8619 26.076 11.8101C26.0066 11.7575 25.9529 11.6869 25.9206 11.6061C25.8882 11.5253 25.8785 11.4371 25.8924 11.3512L26.429 8.22324C26.4432 8.1492 26.4383 8.07278 26.4148 8.00114C26.3914 7.92951 26.3501 7.86501 26.2949 7.81371L24.0495 5.61073C23.9863 5.55164 23.9414 5.47565 23.9201 5.39179C23.8989 5.30793 23.9021 5.21973 23.9295 5.13765C23.9561 5.05512 24.0052 4.98165 24.0714 4.92551C24.1375 4.86938 24.2179 4.83281 24.3037 4.81992L27.4528 4.36096C27.5273 4.35123 27.598 4.32281 27.6585 4.27837C27.719 4.23392 27.7673 4.17489 27.7988 4.10677L29.1898 1.26126Z" stroke="#4DAF7C" stroke-linecap="round" stroke-linejoin="round"/>
<path d="M17.8359 10.3219V6.59375" stroke="#5B5147" stroke-linecap="round" stroke-linejoin="round"/>
<path d="M15.9727 8.45703H19.7008" stroke="#5B5147" stroke-linecap="round" stroke-linejoin="round"/>
<path d="M43.9336 9.85625V7.99219" stroke="#5B5147" stroke-linecap="round" stroke-linejoin="round"/>
<path d="M43 8.92188H44.8641" stroke="#5B5147" stroke-linecap="round" stroke-linejoin="round"/>
<path d="M3.39062 23.368V21.5039" stroke="#5B5147" stroke-linecap="round" stroke-linejoin="round"/>
<path d="M2.46094 22.4375H4.325" stroke="#5B5147" stroke-linecap="round" stroke-linejoin="round"/>
</svg>
