<svg width="64" height="58" viewBox="0 0 64 58" fill="none" xmlns="http://www.w3.org/2000/svg">
<path d="M9.19393 14.591L10.0509 44.5787C10.0746 45.4068 10.765 46.0589 11.5931 46.0353L53.576 44.8355C54.4041 44.8118 55.0562 44.1214 55.0325 43.2933L54.1756 13.3055C54.1519 12.4774 53.4614 11.8253 52.6333 11.849L10.6505 13.0487C9.82238 13.0724 9.17026 13.7629 9.19393 14.591Z" fill="white" stroke="#5B5147" stroke-linecap="round" stroke-linejoin="round"/>
<path d="M28.4376 26.9303C27.8607 28.4566 26.8442 29.7775 25.5165 30.726C24.1889 31.6745 22.6098 32.2081 20.979 32.2592C19.3481 32.3103 17.7387 31.8767 16.3543 31.0131C14.9699 30.1496 13.8727 28.8949 13.2013 27.4078C12.5299 25.9207 12.3146 24.2678 12.5826 22.6583C12.8506 21.0488 13.5898 19.5549 14.7067 18.3655C15.8237 17.1762 17.2683 16.3447 18.8578 15.9763C20.4473 15.6079 22.1104 15.7191 23.6367 16.2958C25.682 17.0715 27.3361 18.6267 28.2361 20.6204C29.1361 22.614 29.2086 24.8833 28.4376 26.9303Z" fill="#F5F0EC"/>
<path d="M17.8014 31.7312C16.7473 31.3802 15.775 30.8199 14.9427 30.0839C14.1105 29.3478 13.4354 28.4513 12.9582 27.448C12.4809 26.4448 12.2111 25.3554 12.1651 24.2454C12.1192 23.1353 12.2978 22.0274 12.6905 20.9881C13.0832 19.9487 13.6817 18.9994 14.4503 18.1971C15.2188 17.3948 16.1414 16.7559 17.1629 16.3189C18.1844 15.8819 19.2836 15.6557 20.3946 15.6539C21.5056 15.6521 22.6055 15.8747 23.6284 16.3083L17.8014 31.7312Z" fill="#F5F0EC"/>
<path d="M20.7109 24.0105L23.6244 16.2991C22.6122 15.915 21.5341 15.7349 20.4521 15.7691C19.3701 15.8033 18.3055 16.0511 17.3197 16.4984L20.7109 24.0105Z" fill="#F5F0EC"/>
<path d="M28.4357 26.9312C28.8188 25.9177 28.9985 24.8387 28.9645 23.7557C28.9306 22.6728 28.6837 21.6071 28.2379 20.6196C27.792 19.6321 27.1561 18.742 26.3663 18.0003C25.5765 17.2586 24.6483 16.6797 23.6347 16.2967L20.7212 24.0082L28.4357 26.9312Z" fill="#F5F0EC"/>
<path d="M28.4376 26.9303C27.8607 28.4566 26.8442 29.7775 25.5165 30.726C24.1889 31.6745 22.6098 32.2081 20.979 32.2592C19.3481 32.3103 17.7387 31.8767 16.3543 31.0131C14.9699 30.1496 13.8727 28.8949 13.2013 27.4078C12.5299 25.9207 12.3146 24.2678 12.5826 22.6583C12.8506 21.0488 13.5898 19.5549 14.7067 18.3655C15.8237 17.1762 17.2683 16.3447 18.8578 15.9763C20.4473 15.6079 22.1104 15.7191 23.6367 16.2958C25.682 17.0715 27.3361 18.6267 28.2361 20.6204C29.1361 22.614 29.2086 24.8833 28.4376 26.9303V26.9303Z" stroke="#5B5147" stroke-linecap="round" stroke-linejoin="round"/>
<path d="M14.3359 36.9531L21.8302 36.7403" stroke="#5B5147" stroke-linecap="round" stroke-linejoin="round"/>
<path d="M15.9141 39.9102L24.9117 39.6492" stroke="#5B5147" stroke-linecap="round" stroke-linejoin="round"/>
<path d="M51.9917 41.8769L27.9961 42.5664" stroke="#5B5147" stroke-linecap="round" stroke-linejoin="round"/>
<path d="M32.3915 38.6868C32.3848 38.4889 32.3001 38.3018 32.156 38.1661C32.0118 38.0304 31.8199 37.9572 31.622 37.9625L30.1156 38.0011C30.0172 38.0031 29.9202 38.0247 29.8303 38.0646C29.7404 38.1046 29.6593 38.1621 29.5918 38.2337C29.5244 38.3054 29.4719 38.3898 29.4375 38.4819C29.403 38.5741 29.3873 38.6723 29.3913 38.7706L29.5072 42.5147L32.5074 42.4309L32.3915 38.6868Z" fill="#F5F0EC" stroke="#5B5147" stroke-linecap="round" stroke-linejoin="round"/>
<path d="M38.2607 34.015C38.254 33.8171 38.1694 33.6299 38.0252 33.4943C37.8811 33.3586 37.6891 33.2854 37.4912 33.2906L35.9849 33.3292C35.787 33.336 35.5998 33.4206 35.4641 33.5648C35.3285 33.7089 35.2553 33.9009 35.2605 34.0988L35.5042 42.4002L38.5044 42.3164L38.2607 34.015Z" fill="#F5F0EC" stroke="#5B5147" stroke-linecap="round" stroke-linejoin="round"/>
<path d="M44.2512 33.85C44.2491 33.7509 44.2274 33.6533 44.1874 33.5627C44.1473 33.472 44.0897 33.3902 44.0179 33.322C43.9461 33.2538 43.8615 33.2004 43.7689 33.1651C43.6764 33.1298 43.5777 33.1131 43.4787 33.1161L41.9848 33.1613C41.787 33.168 41.5998 33.2527 41.4641 33.3968C41.3285 33.541 41.2553 33.7329 41.2605 33.9308L41.4893 42.1845L44.4866 42.0911L44.2512 33.85Z" fill="#F5F0EC" stroke="#5B5147" stroke-linecap="round" stroke-linejoin="round"/>
<path d="M50.0834 27.6819C50.0766 27.4827 49.9918 27.2942 49.8473 27.1569C49.7028 27.0196 49.5102 26.9446 49.3109 26.948L47.8075 26.9962C47.6097 27.0029 47.4225 27.0875 47.2868 27.2317C47.1511 27.3758 47.0779 27.5678 47.0832 27.7657L47.4862 42.0072L50.4864 41.9234L50.0834 27.6819Z" fill="#F5F0EC" stroke="#5B5147" stroke-linecap="round" stroke-linejoin="round"/>
<path d="M33.2695 16.9062L39.267 16.7291" stroke="#5B5147" stroke-linecap="round" stroke-linejoin="round"/>
<path d="M37.8477 19.7773L48.3516 19.4778" stroke="#5B5147" stroke-linecap="round" stroke-linejoin="round"/>
<path d="M34.9414 22.8594L42.4356 22.6466" stroke="#5B5147" stroke-linecap="round" stroke-linejoin="round"/>
<path d="M23.6249 16.3005L17.8009 31.7329" stroke="#5B5147" stroke-linecap="round" stroke-linejoin="round"/>
<path d="M20.7109 24.0117L28.4349 26.9318" stroke="#5B5147" stroke-linecap="round" stroke-linejoin="round"/>
<path d="M17.3203 16.5L20.7115 24.0121" stroke="#5B5147" stroke-linecap="round" stroke-linejoin="round"/>
<circle cx="50" cy="16.0039" r="10.5" fill="white" stroke="#4DAF7C"/>
<path d="M44.2876 13.9131L42.0089 16.6779C41.8397 16.8856 41.7596 17.1518 41.7863 17.4183C41.8129 17.6848 41.944 17.9299 42.1509 18.1C42.3578 18.2701 42.6237 18.3513 42.8903 18.3258C43.1569 18.3004 43.4026 18.1703 43.5736 17.9642L44.1813 17.2299C44.4449 18.4798 45.1301 19.6012 46.1221 20.406C47.1141 21.2108 48.3525 21.6503 49.63 21.6506C49.8986 21.6506 50.1562 21.5439 50.3461 21.354C50.536 21.1641 50.6427 20.9065 50.6427 20.6379C50.6427 20.3693 50.536 20.1117 50.3461 19.9217C50.1562 19.7318 49.8986 19.6251 49.63 19.6251C48.8084 19.6253 48.0122 19.34 47.3777 18.8181C46.7431 18.2963 46.3095 17.5702 46.1511 16.764L47.1892 17.6198C47.3962 17.7899 47.6622 17.871 47.9289 17.8453C48.1956 17.8197 48.4413 17.6895 48.6121 17.4831C48.762 17.3022 48.8443 17.0749 48.8451 16.84C48.8509 16.6882 48.8226 16.537 48.7621 16.3976C48.7016 16.2582 48.6106 16.1342 48.4957 16.0348L45.7359 13.7561C45.6332 13.6711 45.5148 13.6072 45.3874 13.5681C45.26 13.529 45.1261 13.5153 44.9935 13.528C44.8608 13.5407 44.732 13.5795 44.6143 13.6421C44.4967 13.7047 44.3925 13.7899 44.3079 13.8928L44.2876 13.9131Z" fill="#F5F0EC"/>
<path d="M44.2876 13.9131L42.0089 16.6779C41.8397 16.8856 41.7596 17.1518 41.7863 17.4183C41.8129 17.6848 41.944 17.9299 42.1509 18.1C42.3578 18.2701 42.6237 18.3513 42.8903 18.3258C43.1569 18.3004 43.4026 18.1703 43.5736 17.9642L44.1813 17.2299C44.4449 18.4798 45.1301 19.6012 46.1221 20.406C47.1141 21.2108 48.3525 21.6503 49.63 21.6506C49.8986 21.6506 50.1562 21.5439 50.3461 21.354C50.536 21.1641 50.6427 20.9065 50.6427 20.6379C50.6427 20.3693 50.536 20.1117 50.3461 19.9217C50.1562 19.7318 49.8986 19.6251 49.63 19.6251C48.8084 19.6253 48.0122 19.34 47.3777 18.8181C46.7431 18.2963 46.3095 17.5702 46.1511 16.764L47.1892 17.6198C47.3962 17.7899 47.6622 17.871 47.9289 17.8453C48.1956 17.8197 48.4413 17.6895 48.6121 17.4831C48.762 17.3022 48.8443 17.0749 48.8451 16.84C48.8509 16.6882 48.8226 16.537 48.7621 16.3976C48.7016 16.2582 48.6106 16.1342 48.4957 16.0348L45.7359 13.7561C45.6332 13.6711 45.5148 13.6072 45.3874 13.5681C45.26 13.529 45.1261 13.5153 44.9935 13.528C44.8608 13.5407 44.732 13.5795 44.6143 13.6421C44.4967 13.7047 44.3925 13.7899 44.3079 13.8928L44.2876 13.9131Z" stroke="#4DAF7C" stroke-linecap="round" stroke-linejoin="round"/>
<path d="M49.6495 10.5078C49.3809 10.5078 49.1233 10.6145 48.9334 10.8044C48.7434 10.9944 48.6367 11.252 48.6367 11.5206C48.6367 11.7892 48.7434 12.0468 48.9334 12.2367C49.1233 12.4267 49.3809 12.5334 49.6495 12.5334C50.4695 12.5341 51.2639 12.8192 51.8973 13.3399C52.5307 13.8607 52.964 14.585 53.1233 15.3894L52.0852 14.5133C51.8776 14.3441 51.6113 14.2641 51.3448 14.2907C51.0783 14.3173 50.8332 14.4484 50.6631 14.6553C50.493 14.8623 50.4118 15.1281 50.4373 15.3948C50.4628 15.6614 50.5928 15.9071 50.799 16.078L53.5588 18.3568C53.6614 18.4418 53.7798 18.5057 53.9072 18.5448C54.0346 18.5839 54.1685 18.5975 54.3012 18.5848C54.4338 18.5721 54.5627 18.5334 54.6803 18.4708C54.798 18.4082 54.9021 18.323 54.9868 18.22L57.2655 15.4552C57.4154 15.2743 57.4977 15.047 57.4984 14.8121C57.4981 14.6629 57.4647 14.5156 57.4008 14.3808C57.3369 14.246 57.244 14.127 57.1288 14.0322C57.0261 13.9473 56.9077 13.8834 56.7803 13.8442C56.6529 13.8051 56.5191 13.7915 56.3864 13.8042C56.2537 13.8169 56.1249 13.8557 56.0072 13.9183C55.8896 13.9809 55.7854 14.0661 55.7008 14.169L55.0982 14.9032C54.8295 13.658 54.1421 12.5425 53.1506 11.7426C52.1591 10.9428 50.9234 10.507 49.6495 10.5078Z" fill="#F5F0EC"/>
<path d="M49.6495 10.5078C49.3809 10.5078 49.1233 10.6145 48.9334 10.8044C48.7434 10.9944 48.6367 11.252 48.6367 11.5206C48.6367 11.7892 48.7434 12.0468 48.9334 12.2367C49.1233 12.4267 49.3809 12.5334 49.6495 12.5334C50.4695 12.5341 51.2639 12.8192 51.8973 13.3399C52.5307 13.8607 52.964 14.585 53.1233 15.3894L52.0852 14.5133C51.8776 14.3441 51.6113 14.2641 51.3448 14.2907C51.0783 14.3173 50.8332 14.4484 50.6631 14.6553C50.493 14.8623 50.4118 15.1281 50.4373 15.3948C50.4628 15.6614 50.5928 15.9071 50.799 16.078L53.5588 18.3568C53.6614 18.4418 53.7798 18.5057 53.9072 18.5448C54.0346 18.5839 54.1685 18.5975 54.3012 18.5848C54.4338 18.5721 54.5627 18.5334 54.6803 18.4708C54.798 18.4082 54.9021 18.323 54.9868 18.22L57.2655 15.4552C57.4154 15.2743 57.4977 15.047 57.4984 14.8121C57.4981 14.6629 57.4647 14.5156 57.4008 14.3808C57.3369 14.246 57.244 14.127 57.1288 14.0322C57.0261 13.9473 56.9077 13.8834 56.7803 13.8442C56.6529 13.8051 56.5191 13.7915 56.3864 13.8042C56.2537 13.8169 56.1249 13.8557 56.0072 13.9183C55.8896 13.9809 55.7854 14.0661 55.7008 14.169L55.0982 14.9032C54.8295 13.658 54.1421 12.5425 53.1506 11.7426C52.1591 10.9428 50.9234 10.507 49.6495 10.5078V10.5078Z" stroke="#4DAF7C" stroke-linecap="round" stroke-linejoin="round"/>
</svg>
