<svg width="64" height="50" viewBox="0 0 64 50" fill="none" xmlns="http://www.w3.org/2000/svg">
<path d="M54.8495 35.2873C53.5407 35.2877 52.2527 35.6139 51.1014 36.2364C49.9502 36.8589 48.972 37.7582 48.255 38.8531C47.7022 38.4104 47.0354 38.1335 46.3316 38.0542C45.6279 37.9749 44.9162 38.0966 44.2788 38.4051C43.6413 38.7137 43.1044 39.1965 42.73 39.7976C42.3556 40.3987 42.1592 41.0936 42.1634 41.8017C42.1634 42.2931 42.4034 42.1446 41.4777 42.1446C40.4097 42.1462 39.373 42.5048 38.5322 43.1633C37.6915 43.8218 37.095 44.7425 36.8376 45.779C35.6947 44.4075 33.2489 43.2875 33.2489 36.6359H30.506C30.506 43.2417 28.0145 44.3846 26.9173 45.779C26.6599 44.7425 26.0634 43.8218 25.2226 43.1633C24.3819 42.5048 23.3451 42.1462 22.2772 42.1446C21.3514 42.1446 21.5915 42.2931 21.5915 41.8017C21.5957 41.0936 21.3992 40.3987 21.0249 39.7976C20.6505 39.1965 20.1135 38.7137 19.4761 38.4051C18.8387 38.0966 18.1269 37.9749 17.4232 38.0542C16.7195 38.1335 16.0527 38.4104 15.4999 38.8531C14.8888 37.9119 14.0838 37.112 13.1388 36.5068C12.1939 35.9016 11.1306 35.5051 10.0201 35.3437C8.90962 35.1823 7.77747 35.2598 6.69932 35.5709C5.62116 35.8821 4.62182 36.4198 3.76808 37.148C2.91435 37.8763 2.22586 38.7784 1.74864 39.794C1.27142 40.8096 1.01645 41.9154 1.00077 43.0374C0.985088 44.1595 1.20906 45.272 1.65771 46.3005C2.10636 47.3291 2.76936 48.2501 3.60242 49.0019H60.1525C61.3278 47.9309 62.1518 46.5295 62.5165 44.9818C62.8812 43.4341 62.7695 41.8123 62.196 40.3291C61.6226 38.846 60.6141 37.5709 59.3031 36.6712C57.992 35.7714 56.4396 35.289 54.8495 35.2873Z" fill="white"/>
<path d="M54.8495 35.2873C53.5407 35.2877 52.2527 35.6139 51.1014 36.2364C49.9502 36.8589 48.972 37.7582 48.255 38.8531C47.7022 38.4104 47.0354 38.1335 46.3316 38.0542C45.6279 37.9749 44.9162 38.0966 44.2788 38.4051C43.6413 38.7137 43.1044 39.1965 42.73 39.7976C42.3556 40.3987 42.1592 41.0936 42.1634 41.8017C42.1634 42.2931 42.4034 42.1446 41.4777 42.1446C40.4097 42.1462 39.373 42.5048 38.5322 43.1633C37.6915 43.8218 37.095 44.7425 36.8376 45.779C35.6947 44.4075 33.2489 43.2875 33.2489 36.6359H30.506C30.506 43.2417 28.0145 44.3846 26.9173 45.779C26.6599 44.7425 26.0634 43.8218 25.2226 43.1633C24.3819 42.5048 23.3451 42.1462 22.2772 42.1446C21.3514 42.1446 21.5915 42.2931 21.5915 41.8017C21.5957 41.0936 21.3992 40.3987 21.0249 39.7976C20.6505 39.1965 20.1135 38.7137 19.4761 38.4051C18.8387 38.0966 18.1269 37.9749 17.4232 38.0542C16.7195 38.1335 16.0527 38.4104 15.4999 38.8531C14.8888 37.9119 14.0838 37.112 13.1388 36.5068C12.1939 35.9016 11.1306 35.5051 10.0201 35.3437C8.90962 35.1823 7.77747 35.2598 6.69932 35.5709C5.62116 35.8821 4.62182 36.4198 3.76808 37.148C2.91435 37.8763 2.22586 38.7784 1.74864 39.794C1.27142 40.8096 1.01645 41.9154 1.00077 43.0374C0.985088 44.1595 1.20906 45.272 1.65771 46.3005C2.10636 47.3291 2.76936 48.2501 3.60242 49.0019H60.1525C61.3278 47.9309 62.1518 46.5295 62.5165 44.9818C62.8812 43.4341 62.7695 41.8123 62.196 40.3291C61.6226 38.846 60.6141 37.5709 59.3031 36.6712C57.992 35.7714 56.4396 35.289 54.8495 35.2873V35.2873Z" stroke="#4DAF7C" stroke-linecap="round" stroke-linejoin="round"/>
<path d="M37.3633 16.7734C39.3519 29.3452 43.2606 27.8709 43.5234 33.3339C43.525 33.4099 43.5113 33.4854 43.4833 33.5561C43.4552 33.6267 43.4134 33.6911 43.3602 33.7454C43.307 33.7996 43.2434 33.8427 43.1734 33.8722C43.1033 33.9016 43.028 33.9168 42.952 33.9167H37.3633V16.7734Z" fill="#F5F0EC" stroke="#5B5147" stroke-linecap="round" stroke-linejoin="round"/>
<path d="M26.3868 16.7734C24.4439 29.3681 20.4895 27.8594 20.2267 33.3339C20.2252 33.4099 20.2388 33.4854 20.2668 33.5561C20.2949 33.6267 20.3367 33.6911 20.39 33.7454C20.4432 33.7996 20.5067 33.8427 20.5768 33.8722C20.6469 33.9016 20.7221 33.9168 20.7981 33.9167H26.3868V16.7734Z" fill="#F5F0EC" stroke="#5B5147" stroke-linecap="round" stroke-linejoin="round"/>
<path d="M37.3623 31.1719H26.3906V33.9148H37.3623V31.1719Z" fill="#F5F0EC" stroke="#5B5147" stroke-linecap="round" stroke-linejoin="round"/>
<path d="M27.7578 33.9141H35.9866V35.2855C35.9866 36.013 35.6976 36.7107 35.1832 37.2251C34.6688 37.7395 33.9711 38.0285 33.2437 38.0285H30.5007C29.7733 38.0285 29.0756 37.7395 28.5612 37.2251C28.0468 36.7107 27.7578 36.013 27.7578 35.2855V33.9141Z" fill="#F5F0EC" stroke="#5B5147" stroke-linecap="round" stroke-linejoin="round"/>
<path d="M17.9336 44.8875C18.3244 44.0667 18.9398 43.3734 19.7084 42.888C20.4771 42.4025 21.3675 42.1448 22.2766 42.1445" stroke="#5B5147" stroke-linecap="round" stroke-linejoin="round"/>
<path d="M14.0469 41.8028C14.0469 40.8025 14.4442 39.8432 15.1515 39.1359C15.8588 38.4286 16.8181 38.0312 17.8184 38.0312" stroke="#5B5147" stroke-linecap="round" stroke-linejoin="round"/>
<path d="M45.8156 44.8875C45.4248 44.0667 44.8094 43.3734 44.0408 42.888C43.2722 42.4025 42.3817 42.1448 41.4727 42.1445" stroke="#5B5147" stroke-linecap="round" stroke-linejoin="round"/>
<path d="M49.7051 41.8028C49.7051 40.8025 49.3078 39.8432 48.6005 39.1359C47.8932 38.4286 46.9339 38.0312 45.9336 38.0312" stroke="#5B5147" stroke-linecap="round" stroke-linejoin="round"/>
<path d="M42.8458 11.9717C42.8458 10.5309 42.5621 9.10417 42.0107 7.77302C41.4593 6.44187 40.6511 5.23236 39.6323 4.21354C38.6135 3.19472 37.404 2.38655 36.0728 1.83517C34.7417 1.28379 33.315 1 31.8741 1C30.4333 1 29.0066 1.28379 27.6754 1.83517C26.3443 2.38655 25.1348 3.19472 24.116 4.21354C23.0971 5.23236 22.289 6.44187 21.7376 7.77302C21.1862 9.10417 20.9024 10.5309 20.9024 11.9717C20.8945 14.0823 21.5065 16.1488 22.6625 17.9147C25.0958 21.909 26.3846 26.4951 26.3883 31.1722H37.36C37.3566 26.4942 38.646 21.9061 41.0858 17.9147C42.2418 16.1488 42.8538 14.0823 42.8458 11.9717Z" fill="white"/>
<path d="M42.8458 11.9717C42.8458 10.5309 42.5621 9.10417 42.0107 7.77302C41.4593 6.44187 40.6511 5.23236 39.6323 4.21354C38.6135 3.19472 37.404 2.38655 36.0728 1.83517C34.7417 1.28379 33.315 1 31.8741 1C30.4333 1 29.0066 1.28379 27.6754 1.83517C26.3443 2.38655 25.1348 3.19472 24.116 4.21354C23.0971 5.23236 22.289 6.44187 21.7376 7.77302C21.1862 9.10417 20.9024 10.5309 20.9024 11.9717C20.8945 14.0823 21.5065 16.1488 22.6625 17.9147C25.0958 21.909 26.3846 26.4951 26.3883 31.1722H37.36C37.3566 26.4942 38.646 21.9061 41.0858 17.9147C42.2418 16.1488 42.8538 14.0823 42.8458 11.9717V11.9717Z" stroke="#5B5147" stroke-linecap="round" stroke-linejoin="round"/>
<path d="M36.6765 9.91406L33.9336 31.1718" stroke="#5B5147" stroke-linecap="round" stroke-linejoin="round"/>
<path d="M29.8211 31.1718L27.0781 9.91406" stroke="#5B5147" stroke-linecap="round" stroke-linejoin="round"/>
<path d="M27.7852 15.3767L29.4195 13.1824C29.4742 13.1213 29.5411 13.0725 29.6159 13.039C29.6908 13.0056 29.7718 12.9883 29.8538 12.9883C29.9358 12.9883 30.0168 13.0056 30.0916 13.039C30.1665 13.0725 30.2334 13.1213 30.2881 13.1824L31.431 14.3253C31.5378 14.43 31.6814 14.4886 31.831 14.4886C31.9806 14.4886 32.1242 14.43 32.231 14.3253L33.3739 13.1824C33.4285 13.1213 33.4955 13.0725 33.5703 13.039C33.6452 13.0056 33.7262 12.9883 33.8082 12.9883C33.8901 12.9883 33.9712 13.0056 34.046 13.039C34.1209 13.0725 34.1878 13.1213 34.2425 13.1824L35.8768 15.3767" stroke="#4DAF7C" stroke-linecap="round" stroke-linejoin="round"/>
</svg>
