<svg width="61" height="57" viewBox="0 0 61 57" fill="none" xmlns="http://www.w3.org/2000/svg">
<path d="M59.7839 54.027C59.9387 54.194 60.042 54.4021 60.0814 54.6263C60.1209 54.8505 60.0948 55.0813 60.0064 55.2911C59.9159 55.5005 59.7663 55.679 59.5759 55.8047C59.3855 55.9305 59.1626 55.9979 58.9345 55.9989H2.15474C1.92803 55.9973 1.70673 55.9294 1.51809 55.8036C1.32945 55.6779 1.18168 55.4997 1.09297 55.2911C1.00451 55.0813 0.97845 54.8505 1.01791 54.6263C1.05737 54.4021 1.16068 54.194 1.31544 54.027L11.3062 43.561C11.5282 43.3366 11.83 43.2094 12.1455 43.207H48.9538C49.2693 43.2094 49.5711 43.3366 49.7931 43.561L59.7839 54.027Z" fill="white" stroke="#4DAF7C" stroke-linecap="round" stroke-linejoin="round"/>
<path d="M36.3676 20.8172C38.2944 20.8172 39.8563 19.2553 39.8563 17.3285C39.8563 15.4018 38.2944 13.8398 36.3676 13.8398C34.4408 13.8398 32.8789 15.4018 32.8789 17.3285C32.8789 19.2553 34.4408 20.8172 36.3676 20.8172Z" fill="white" stroke="#5B5147" stroke-linecap="round" stroke-linejoin="round"/>
<path d="M38.6907 13.2055C38.689 12.8752 38.5717 12.5559 38.3594 12.3029C38.147 12.0499 37.8528 11.8791 37.5278 11.8202V10.8797C37.5278 9.02921 36.7927 7.25448 35.4842 5.94597C34.1757 4.63746 32.401 3.90234 30.5504 3.90234C28.6999 3.90234 26.9252 4.63746 25.6167 5.94597C24.3082 7.25448 23.5731 9.02921 23.5731 10.8797V11.8202C23.2472 11.8773 22.9519 12.0475 22.7392 12.3009C22.5265 12.5544 22.4099 12.8747 22.4102 13.2055C22.4112 13.5629 22.5454 13.907 22.7866 14.1707C23.0279 14.4344 23.3588 14.5986 23.7146 14.6313C24.0416 16.2011 24.8993 17.6103 26.1433 18.6219C27.3874 19.6336 28.9419 20.1858 30.5454 20.1858C32.1488 20.1858 33.7034 19.6336 34.9474 18.6219C36.1915 17.6103 37.0492 16.2011 37.3761 14.6313C37.7338 14.601 38.0672 14.4378 38.3105 14.1739C38.5538 13.91 38.6895 13.5645 38.6907 13.2055Z" fill="white" stroke="#5B5147" stroke-linecap="round" stroke-linejoin="round"/>
<path d="M26.7681 14.9541C27.2484 14.9541 27.6377 14.5648 27.6377 14.0845C27.6377 13.6042 27.2484 13.2148 26.7681 13.2148C26.2878 13.2148 25.8984 13.6042 25.8984 14.0845C25.8984 14.5648 26.2878 14.9541 26.7681 14.9541Z" fill="#F5F0EC"/>
<path d="M34.3228 14.9541C34.8031 14.9541 35.1924 14.5648 35.1924 14.0845C35.1924 13.6042 34.8031 13.2148 34.3228 13.2148C33.8425 13.2148 33.4531 13.6042 33.4531 14.0845C33.4531 14.5648 33.8425 14.9541 34.3228 14.9541Z" fill="#F5F0EC"/>
<path d="M33.6845 12.0449C33.4965 11.8656 33.2466 11.7656 32.9868 11.7656C32.727 11.7656 32.4771 11.8656 32.2891 12.0449" stroke="#5B5147" stroke-linecap="round" stroke-linejoin="round"/>
<path d="M27.4062 12.0449C27.5943 11.8656 27.8442 11.7656 28.104 11.7656C28.3638 11.7656 28.6137 11.8656 28.8017 12.0449" stroke="#5B5147" stroke-linecap="round" stroke-linejoin="round"/>
<path d="M32.2895 16.1172C31.7846 16.4908 31.1732 16.6924 30.5451 16.6924C29.9171 16.6924 29.3056 16.4908 28.8008 16.1172" stroke="#5B5147" stroke-linecap="round" stroke-linejoin="round"/>
<path d="M38.679 12.3357C38.679 12.3357 32.3185 6.34933 27.9197 6.20776C26.8276 10.1515 22.3984 12.3357 22.3984 12.3357V8.79647C22.3984 4.55948 26.2916 1 30.5387 1C34.7858 1 38.6284 4.55948 38.6284 8.79647L38.679 12.3357Z" fill="white"/>
<path d="M38.679 12.3357C38.679 12.3357 32.3185 6.34933 27.9197 6.20776C26.8276 10.1515 22.3984 12.3357 22.3984 12.3357V8.79647C22.3984 4.55948 26.2916 1 30.5387 1C34.7858 1 38.6284 4.55948 38.6284 8.79647L38.679 12.3357Z" stroke="#5B5147" stroke-linecap="round" stroke-linejoin="round"/>
<path d="M14.4995 45.5361C13.9443 45.5361 13.4119 45.3156 13.0193 44.923C12.6268 44.5305 12.4062 43.9981 12.4062 43.4429C12.4062 42.8877 12.6268 42.3553 13.0193 41.9628C13.4119 41.5702 13.9443 41.3497 14.4995 41.3497H17.2904C17.6605 41.3497 18.0155 41.2027 18.2772 40.941C18.5389 40.6793 18.6859 40.3243 18.6859 39.9542V34.3723C18.6864 32.652 19.0611 30.9524 19.784 29.3913C20.5069 27.8303 21.5607 26.4452 22.8723 25.332V39.9542C22.8723 40.6872 22.7279 41.4131 22.4474 42.0903C22.1669 42.7675 21.7558 43.3829 21.2374 43.9012C20.7191 44.4195 20.1037 44.8307 19.4265 45.1112C18.7493 45.3917 18.0234 45.5361 17.2904 45.5361H14.4995Z" fill="white"/>
<path d="M14.4995 45.5361C13.9443 45.5361 13.4119 45.3156 13.0193 44.923C12.6268 44.5305 12.4062 43.9981 12.4062 43.4429C12.4062 42.8877 12.6268 42.3553 13.0193 41.9628C13.4119 41.5702 13.9443 41.3497 14.4995 41.3497H17.2904C17.6605 41.3497 18.0155 41.2027 18.2772 40.941C18.5389 40.6793 18.6859 40.3243 18.6859 39.9542V34.3723C18.6864 32.652 19.0611 30.9524 19.784 29.3913C20.5069 27.8303 21.5607 26.4452 22.8723 25.332V39.9542C22.8723 40.6872 22.7279 41.4131 22.4474 42.0903C22.1669 42.7675 21.7558 43.3829 21.2374 43.9012C20.7191 44.4195 20.1037 44.8307 19.4265 45.1112C18.7493 45.3917 18.0234 45.5361 17.2904 45.5361H14.4995Z" stroke="#5B5147" stroke-linecap="round" stroke-linejoin="round"/>
<path d="M46.5994 45.5361C47.1546 45.5361 47.687 45.3156 48.0796 44.923C48.4721 44.5305 48.6926 43.9981 48.6926 43.4429C48.6926 42.8877 48.4721 42.3553 48.0796 41.9628C47.687 41.5702 47.1546 41.3497 46.5994 41.3497H43.8085C43.4384 41.3497 43.0834 41.2027 42.8217 40.941C42.56 40.6793 42.413 40.3243 42.413 39.9542V34.3723C42.4125 32.652 42.0378 30.9524 41.3149 29.3913C40.592 27.8303 39.5382 26.4452 38.2266 25.332V39.9542C38.2266 41.4346 38.8147 42.8544 39.8615 43.9012C40.9083 44.948 42.3281 45.5361 43.8085 45.5361H46.5994Z" fill="white"/>
<path d="M46.5994 45.5361C47.1546 45.5361 47.687 45.3156 48.0796 44.923C48.4721 44.5305 48.6926 43.9981 48.6926 43.4429C48.6926 42.8877 48.4721 42.3553 48.0796 41.9628C47.687 41.5702 47.1546 41.3497 46.5994 41.3497H43.8085C43.4384 41.3497 43.0834 41.2027 42.8217 40.941C42.56 40.6793 42.413 40.3243 42.413 39.9542V34.3723C42.4125 32.652 42.0378 30.9524 41.3149 29.3913C40.592 27.8303 39.5382 26.4452 38.2266 25.332V39.9542C38.2266 41.4346 38.8147 42.8544 39.8615 43.9012C40.9083 44.948 42.3281 45.5361 43.8085 45.5361H46.5994Z" stroke="#5B5147" stroke-linecap="round" stroke-linejoin="round"/>
<path d="M38.2252 49.5589V25.2897C36.0826 23.4686 33.3622 22.4688 30.5501 22.4688C27.7381 22.4688 25.0177 23.4686 22.875 25.2897V49.5589H38.2252Z" fill="#F5F0EC"/>
<path d="M30.5489 22.5273C28.5128 22.5264 26.5106 23.0487 24.7344 24.0442V25.0554C24.7344 26.5975 25.347 28.0764 26.4374 29.1668C27.5278 30.2573 29.0068 30.8699 30.5489 30.8699C32.091 30.8699 33.5699 30.2573 34.6603 29.1668C35.7508 28.0764 36.3634 26.5975 36.3634 25.0554V24.0442C34.5872 23.0487 32.585 22.5264 30.5489 22.5273Z" fill="white" stroke="#5B5147" stroke-linecap="round" stroke-linejoin="round"/>
<path d="M38.2252 49.5589V25.2897C36.0826 23.4686 33.3622 22.4688 30.5501 22.4688C27.7381 22.4688 25.0177 23.4686 22.875 25.2897V49.5589H38.2252Z" stroke="#5B5147" stroke-linecap="round" stroke-linejoin="round"/>
<path d="M30.5513 54.8262C38.9005 54.8262 45.6689 54.0475 45.6689 53.0869C45.6689 52.1264 38.9005 51.3477 30.5513 51.3477C22.202 51.3477 15.4336 52.1264 15.4336 53.0869C15.4336 54.0475 22.202 54.8262 30.5513 54.8262Z" fill="#F5F0EC"/>
<path d="M18.2842 45.5436C17.3616 45.4658 16.4459 45.7577 15.7386 46.3551C15.0312 46.9525 14.5901 47.8064 14.5123 48.7289C14.4346 49.6515 14.7265 50.5672 15.3238 51.2745C15.9212 51.9819 16.7751 52.423 17.6977 52.5008L28.7199 52.8749L30.1761 47.0402L18.2842 45.5436Z" fill="#F5F0EC"/>
<path d="M18.2842 45.5436C17.3616 45.4658 16.4459 45.7577 15.7386 46.3551C15.0312 46.9525 14.5901 47.8064 14.5123 48.7289C14.4346 49.6515 14.7265 50.5672 15.3238 51.2745C15.9212 51.9819 16.7751 52.423 17.6977 52.5008L28.7199 52.8749L30.1761 47.0402L18.2842 45.5436Z" stroke="#5B5147" stroke-linecap="round" stroke-linejoin="round"/>
<path d="M30.2363 47.302L32.3295 47.0391L33.7857 52.8637L30.8329 52.9547C30.0887 53.0079 29.3533 52.7663 28.7857 52.2819C28.2181 51.7975 27.8638 51.1094 27.7993 50.366C27.7377 49.6407 27.9558 48.9193 28.4089 48.3497C28.862 47.78 29.5158 47.4052 30.2363 47.302Z" fill="white" stroke="#5B5147" stroke-linecap="round" stroke-linejoin="round"/>
<path d="M44.1998 45.5436C44.6566 45.5051 45.1165 45.5569 45.5533 45.6962C45.9901 45.8354 46.3952 46.0593 46.7454 46.3551C47.0957 46.6509 47.3842 47.0127 47.5946 47.42C47.805 47.8273 47.9331 48.2721 47.9716 48.7289C48.0101 49.1857 47.9583 49.6457 47.8191 50.0824C47.6798 50.5192 47.4559 50.9243 47.1601 51.2745C46.8643 51.6248 46.5025 51.9133 46.0952 52.1237C45.6879 52.3341 45.2431 52.4622 44.7863 52.5007L33.7843 52.8648L32.3281 47.0301L44.1998 45.5436Z" fill="#F5F0EC"/>
<path d="M44.1998 45.5436C44.6566 45.5051 45.1165 45.5569 45.5533 45.6962C45.9901 45.8354 46.3952 46.0593 46.7454 46.3551C47.0957 46.6509 47.3842 47.0127 47.5946 47.42C47.805 47.8273 47.9331 48.2721 47.9716 48.7289C48.0101 49.1857 47.9583 49.6457 47.8191 50.0824C47.6798 50.5192 47.4559 50.9243 47.1601 51.2745C46.8643 51.6248 46.5025 51.9133 46.0952 52.1237C45.6879 52.3341 45.2431 52.4622 44.7863 52.5007L33.7843 52.8648L32.3281 47.0301L44.1998 45.5436Z" stroke="#5B5147" stroke-linecap="round" stroke-linejoin="round"/>
</svg>
