<svg width="64" height="40" viewBox="0 0 64 40" fill="none" xmlns="http://www.w3.org/2000/svg">
<rect width="64" height="40" rx="5" fill="#FF2D46"/>
<path fill-rule="evenodd" clip-rule="evenodd" d="M8.15831 18.9413C7.51473 18.9413 7 18.4275 7 17.7853C7 17.1431 7.51473 16.6293 8.15831 16.6293H8.69872V15.2422C8.69872 12.8532 10.294 10.6953 13.6137 10.6953C14.283 10.6953 14.8234 11.2347 14.8234 11.9028C14.8234 12.5706 14.283 13.1101 13.6137 13.1101C12.1986 13.1101 11.478 13.9063 11.478 15.0366V16.6293H13.202C13.8456 16.6293 14.36 17.1431 14.36 17.7853C14.36 18.4275 13.8456 18.9413 13.202 18.9413H11.478V27.1617C11.478 27.9323 10.8601 28.497 10.0882 28.497C9.26492 28.497 8.69872 27.9323 8.69872 27.1617V18.9413H8.15831Z" fill="white"/>
<path fill-rule="evenodd" clip-rule="evenodd" d="M18.9394 17.937C19.4285 16.9352 20.6382 16.293 21.7187 16.293C22.4394 16.293 23.0315 16.8837 23.0315 17.603C23.0315 18.3223 22.4394 18.913 21.7187 18.913C19.9432 18.913 18.9394 20.0436 18.9394 21.7647V27.1077C18.9394 27.8785 18.3219 28.4946 17.55 28.4946C16.7777 28.4946 16.1602 27.8785 16.1602 27.1077V17.8085C16.1602 17.0379 16.7777 16.4214 17.55 16.4214C18.3219 16.4214 18.9394 17.0379 18.9394 17.8085V17.937Z" fill="white"/>
<path fill-rule="evenodd" clip-rule="evenodd" d="M27.404 27.106C27.404 27.8769 26.7864 28.4929 26.0142 28.4929C25.2422 28.4929 24.6247 27.8769 24.6247 27.106V17.8068C24.6247 17.0362 25.2422 16.4196 26.0142 16.4196C26.7864 16.4196 27.404 17.0362 27.404 17.8068V27.106ZM24.3672 13.4142C24.3672 12.2324 24.9593 11.7188 26.0142 11.7188C27.095 11.7188 27.6869 12.2324 27.6869 13.4142C27.6869 14.4159 27.095 15.0326 26.0142 15.0326C24.9593 15.0326 24.3672 14.4159 24.3672 13.4142Z" fill="white"/>
<path fill-rule="evenodd" clip-rule="evenodd" d="M32.6056 19.6566C32.6056 21.5572 38.9365 20.6841 38.9365 24.9225C38.9365 27.3375 36.8778 28.5703 34.2269 28.5703C32.0138 28.5703 30.3155 27.5685 29.6719 26.772C29.466 26.5153 29.3633 26.2838 29.3633 25.9759C29.3633 25.3078 29.9295 24.7428 30.5983 24.7428C30.8559 24.7428 31.1131 24.82 31.3963 25.051C32.0912 25.6162 32.9402 26.104 34.2269 26.104C35.3852 26.104 36.1315 25.796 36.1315 25.0767C36.1315 22.9958 29.8263 24.0747 29.8263 19.7076C29.8263 17.396 31.7566 16.2656 34.1242 16.2656C35.9514 16.2656 37.5726 16.9592 38.2929 17.8583C38.4473 18.0638 38.5505 18.2437 38.5505 18.6289C38.5505 19.2969 37.9843 19.8622 37.315 19.8622C36.9549 19.8622 36.7233 19.7076 36.44 19.5023C35.8739 19.0913 35.179 18.6804 34.1242 18.6804C33.1717 18.6804 32.6056 19.0142 32.6056 19.6566Z" fill="white"/>
<path fill-rule="evenodd" clip-rule="evenodd" d="M43.6971 23.4862C43.6971 25.2587 44.7524 26.2608 46.2449 26.2608C48.0207 26.2608 48.9985 24.9759 48.9985 22.4584C48.9985 19.9157 47.9951 18.6311 46.2449 18.6311C44.701 18.6311 43.6971 19.9413 43.6971 19.9413V23.4862ZM51.7521 22.4584C51.7521 26.6456 49.7191 28.6237 46.2449 28.6237C43.1311 28.6237 40.918 26.9028 40.918 23.4862V11.3871C40.918 10.6163 41.5354 10 42.3077 10C43.0797 10 43.6971 10.6163 43.6971 11.3871V17.2954C44.2119 16.7816 45.2928 16.2678 46.5281 16.2678C49.7705 16.2678 51.7521 18.2715 51.7521 22.4584Z" fill="white"/>
<path fill-rule="evenodd" clip-rule="evenodd" d="M56.7165 27.1099C56.7165 27.8808 56.099 28.4968 55.3267 28.4968C54.5547 28.4968 53.9373 27.8808 53.9373 27.1099V17.8107C53.9373 17.0401 54.5547 16.4235 55.3267 16.4235C56.099 16.4235 56.7165 17.0401 56.7165 17.8107V27.1099ZM53.6797 13.4181C53.6797 12.2363 54.2718 11.7227 55.3267 11.7227C56.4075 11.7227 56.9994 12.2363 56.9994 13.4181C56.9994 14.4198 56.4075 15.0365 55.3267 15.0365C54.2718 15.0365 53.6797 14.4198 53.6797 13.4181Z" fill="white"/>
</svg>
