<svg width="49" height="58" viewBox="0 0 49 58" fill="none" xmlns="http://www.w3.org/2000/svg">
<path d="M19.0166 31.6152C18.9979 32.1143 19.1781 32.6004 19.5174 32.9665C19.8567 33.3326 20.3274 33.5488 20.8259 33.5675C21.3245 33.5862 21.81 33.4059 22.1758 33.0663C22.5415 32.7266 22.7575 32.2554 22.7762 31.7564L22.936 27.673L23.6315 29.7147C23.7923 30.1876 24.1341 30.5771 24.5818 30.7977C25.0295 31.0182 25.5464 31.0517 26.0188 30.8908C26.4912 30.7298 26.8803 30.3876 27.1007 29.9394C27.321 29.4913 27.3544 28.9738 27.1937 28.501L27.0621 28.1152C28.9418 27.7201 28.5565 25.923 28.6693 22.9593L29.3366 25.7819C29.4581 26.2613 29.7632 26.6736 30.186 26.9295C30.6088 27.1855 31.1152 27.2645 31.5958 27.1495C32.0763 27.0345 32.4923 26.7347 32.7538 26.315C33.0152 25.8953 33.1011 25.3895 32.9928 24.9069L31.7709 19.8074L32.7108 20.5695C33.1022 20.8802 33.6008 21.0225 34.097 20.9651C34.5931 20.9078 35.0462 20.6555 35.3566 20.2637C35.6669 19.872 35.8091 19.3728 35.7518 18.8761C35.6945 18.3794 35.4425 17.9259 35.0511 17.6152L33.9984 16.7778C35.3989 15.837 34.8631 14.5668 33.7447 13.3155C34.03 13.0523 34.227 12.7072 34.3086 12.3276C36.1884 12.4311 36.6019 8.85577 33.5285 8.08427C33.841 7.86991 34.0815 7.56604 34.2184 7.2125C34.3554 6.85896 34.3825 6.47224 34.2961 6.10303C34.2098 5.73382 34.014 5.39934 33.7345 5.14343C33.4549 4.88753 33.1047 4.72213 32.7296 4.66894L30.0133 4.29259C29.901 3.96407 29.7 3.67307 29.4326 3.45182C29.1653 3.23057 28.842 3.08768 28.4985 3.03898C28.1551 2.99028 27.8048 3.03767 27.4866 3.1759C27.1684 3.31412 26.8946 3.5378 26.6955 3.82216H26.6391C26.7627 3.59436 26.838 3.34345 26.8601 3.08517C26.8823 2.82688 26.8509 2.5668 26.768 2.32123C26.685 2.07566 26.5522 1.8499 26.378 1.65811C26.2038 1.46631 25.9919 1.31262 25.7555 1.20668C25.5192 1.10073 25.2635 1.04481 25.0045 1.04243C24.7456 1.04004 24.4889 1.09125 24.2507 1.19282C24.0124 1.2944 23.7977 1.44416 23.62 1.63272C23.4423 1.82127 23.3054 2.04455 23.2179 2.28855C21.7159 1.52791 20.0561 1.13158 18.3728 1.13158C16.6895 1.13158 15.0298 1.52791 13.5277 2.28855C13.4511 2.03195 13.3207 1.79466 13.1452 1.59255C12.9697 1.39043 12.7531 1.22814 12.51 1.11653C12.2668 1.00492 12.0026 0.946552 11.7351 0.945332C11.4676 0.944112 11.2029 1.00007 10.9587 1.10946C10.7145 1.21885 10.4964 1.37915 10.3191 1.57966C10.1418 1.78017 10.0092 2.01626 9.93033 2.27215C9.85144 2.52804 9.82803 2.79784 9.86165 3.06352C9.89527 3.3292 9.98515 3.58463 10.1253 3.81275H10.0689C9.86981 3.52839 9.59601 3.30471 9.27779 3.16649C8.95957 3.02826 8.60935 2.98088 8.2659 3.02958C7.92244 3.07827 7.59914 3.22116 7.33179 3.44241C7.06444 3.66366 6.86345 3.95466 6.75109 4.28318L4.03482 4.65953C3.65903 4.71122 3.30766 4.87551 3.02688 5.1308C2.74609 5.3861 2.54903 5.72045 2.46158 6.08993C2.37414 6.45941 2.4004 6.84673 2.53693 7.201C2.67345 7.55526 2.91384 7.85989 3.22651 8.07486C0.134282 8.85577 0.641822 12.4216 2.45581 12.3181C2.53486 12.6967 2.72848 13.0416 3.01034 13.3061C1.89187 14.5574 1.36554 15.8087 2.76597 16.7684L1.71329 17.6058C1.32193 17.9165 1.06989 18.37 1.0126 18.8667C0.955315 19.3634 1.09748 19.8626 1.40783 20.2543C1.71817 20.6461 2.17128 20.8984 2.66746 20.9557C3.16364 21.0131 3.66225 20.8708 4.05361 20.5601L4.9935 19.798L3.77165 24.9069C3.65574 25.3935 3.73767 25.9062 3.99942 26.3323C4.26117 26.7585 4.6813 27.063 5.16738 27.1791C5.65346 27.2951 6.16569 27.2131 6.59136 26.9511C7.01704 26.689 7.3213 26.2685 7.43721 25.7819L8.10453 22.9593C8.19852 25.5937 7.81316 27.6636 9.71174 28.1152L9.58015 28.501C9.41937 28.9738 9.45283 29.4913 9.67316 29.9394C9.89349 30.3876 10.2826 30.7298 10.755 30.8908C11.2274 31.0517 11.7443 31.0182 12.192 30.7977C12.6397 30.5771 12.9815 30.1876 13.1423 29.7147L13.8378 27.673L13.9882 31.7564C14.0069 32.2554 14.2229 32.7266 14.5886 33.0663C14.9544 33.4059 15.4399 33.5862 15.9385 33.5675C16.437 33.5488 16.9077 33.3326 17.2471 32.9665C17.5864 32.6004 17.7665 32.1143 17.7478 31.6152C18.1579 31.7624 18.6065 31.7624 19.0166 31.6152Z" fill="white"/>
<path d="M19.0166 31.6152C18.9979 32.1143 19.1781 32.6004 19.5174 32.9665C19.8567 33.3326 20.3274 33.5488 20.8259 33.5675C21.3245 33.5862 21.81 33.4059 22.1758 33.0663C22.5415 32.7266 22.7575 32.2554 22.7762 31.7564L22.936 27.673L23.6315 29.7147C23.7923 30.1876 24.1341 30.5771 24.5818 30.7977C25.0295 31.0182 25.5464 31.0517 26.0188 30.8908C26.4912 30.7298 26.8803 30.3876 27.1007 29.9394C27.321 29.4913 27.3544 28.9738 27.1937 28.501L27.0621 28.1152C28.9418 27.7201 28.5565 25.923 28.6693 22.9593L29.3366 25.7819C29.4581 26.2613 29.7632 26.6736 30.186 26.9295C30.6088 27.1855 31.1152 27.2645 31.5958 27.1495C32.0763 27.0345 32.4923 26.7347 32.7538 26.315C33.0152 25.8953 33.1011 25.3895 32.9928 24.9069L31.7709 19.8074L32.7108 20.5695C33.1022 20.8802 33.6008 21.0225 34.097 20.9651C34.5931 20.9078 35.0462 20.6555 35.3566 20.2637C35.6669 19.872 35.8091 19.3728 35.7518 18.8761C35.6945 18.3794 35.4425 17.9259 35.0511 17.6152L33.9984 16.7778C35.3989 15.837 34.8631 14.5668 33.7447 13.3155C34.03 13.0523 34.227 12.7072 34.3086 12.3276C36.1884 12.4311 36.6019 8.85577 33.5285 8.08427C33.841 7.86991 34.0815 7.56604 34.2184 7.2125C34.3554 6.85896 34.3825 6.47224 34.2961 6.10303C34.2098 5.73382 34.014 5.39934 33.7345 5.14343C33.4549 4.88753 33.1047 4.72213 32.7296 4.66894L30.0133 4.29259C29.901 3.96407 29.7 3.67307 29.4326 3.45182C29.1653 3.23057 28.842 3.08768 28.4985 3.03898C28.1551 2.99028 27.8048 3.03767 27.4866 3.1759C27.1684 3.31412 26.8946 3.5378 26.6955 3.82216H26.6391C26.7627 3.59436 26.838 3.34345 26.8601 3.08517C26.8823 2.82688 26.8509 2.5668 26.768 2.32123C26.685 2.07566 26.5522 1.8499 26.378 1.65811C26.2038 1.46631 25.9919 1.31262 25.7555 1.20668C25.5192 1.10073 25.2635 1.04481 25.0045 1.04243C24.7456 1.04004 24.4889 1.09125 24.2507 1.19282C24.0124 1.2944 23.7977 1.44416 23.62 1.63272C23.4423 1.82127 23.3054 2.04455 23.2179 2.28855C21.7159 1.52791 20.0561 1.13158 18.3728 1.13158C16.6895 1.13158 15.0298 1.52791 13.5277 2.28855C13.4511 2.03195 13.3207 1.79466 13.1452 1.59255C12.9697 1.39043 12.7531 1.22814 12.51 1.11653C12.2668 1.00492 12.0026 0.946552 11.7351 0.945332C11.4676 0.944112 11.2029 1.00007 10.9587 1.10946C10.7145 1.21885 10.4964 1.37915 10.3191 1.57966C10.1418 1.78017 10.0092 2.01626 9.93033 2.27215C9.85144 2.52804 9.82803 2.79784 9.86165 3.06352C9.89527 3.3292 9.98515 3.58463 10.1253 3.81275H10.0689C9.86981 3.52839 9.59601 3.30471 9.27779 3.16649C8.95957 3.02826 8.60935 2.98088 8.2659 3.02958C7.92244 3.07827 7.59914 3.22116 7.33179 3.44241C7.06443 3.66366 6.86345 3.95466 6.75109 4.28318L4.03482 4.65953C3.65903 4.71122 3.30766 4.87551 3.02688 5.1308C2.74609 5.3861 2.54903 5.72045 2.46158 6.08993C2.37414 6.45941 2.4004 6.84673 2.53693 7.201C2.67345 7.55526 2.91384 7.85989 3.22651 8.07486C0.134282 8.85577 0.641822 12.4216 2.45581 12.3181C2.53486 12.6967 2.72848 13.0416 3.01034 13.3061C1.89187 14.5574 1.36554 15.8087 2.76597 16.7684L1.71329 17.6058C1.32193 17.9165 1.06989 18.37 1.0126 18.8667C0.955315 19.3634 1.09748 19.8626 1.40783 20.2543C1.71817 20.6461 2.17128 20.8984 2.66746 20.9557C3.16364 21.0131 3.66225 20.8708 4.05361 20.5601L4.9935 19.798L3.77165 24.9069C3.65574 25.3935 3.73767 25.9062 3.99942 26.3323C4.26117 26.7585 4.6813 27.063 5.16738 27.1791C5.65346 27.2951 6.16569 27.2131 6.59136 26.9511C7.01704 26.689 7.3213 26.2685 7.43721 25.7819L8.10453 22.9593C8.19852 25.5937 7.81316 27.6636 9.71174 28.1152L9.58015 28.501C9.41937 28.9738 9.45283 29.4913 9.67316 29.9394C9.89348 30.3876 10.2826 30.7298 10.755 30.8908C11.2274 31.0517 11.7443 31.0182 12.192 30.7977C12.6397 30.5771 12.9815 30.1876 13.1423 29.7147L13.8378 27.673L13.9882 31.7564C14.0069 32.2554 14.2229 32.7266 14.5886 33.0663C14.9544 33.4059 15.4399 33.5862 15.9385 33.5675C16.437 33.5488 16.9077 33.3326 17.2471 32.9665C17.5864 32.6004 17.7665 32.1143 17.7478 31.6152C18.1579 31.7624 18.6065 31.7624 19.0166 31.6152Z" stroke="#5B5147" stroke-linecap="round" stroke-linejoin="round"/>
<path d="M18.3941 29.375C14.5284 29.3874 10.8249 30.9314 8.09318 33.6695C5.36149 36.4075 3.82384 40.1168 3.81641 43.9865V45.8682H32.9529V43.9865C32.948 40.1193 31.4137 36.4114 28.6856 33.6733C25.9574 30.9353 22.2572 29.3899 18.3941 29.375Z" fill="#F5F0EC"/>
<path d="M18.3941 29.375C14.5284 29.3874 10.8249 30.9314 8.09318 33.6695C5.36149 36.4075 3.82384 40.1168 3.81641 43.9865V45.8682H32.9529V43.9865C32.948 40.1193 31.4137 36.4114 28.6856 33.6733C25.9574 30.9353 22.2572 29.3899 18.3941 29.375V29.375Z" stroke="#5B5147" stroke-linecap="round" stroke-linejoin="round"/>
<path d="M9.45454 45.8334C8.73083 44.3766 8.51465 44.5364 8.9376 42.948L9.47334 40.6641" stroke="#5B5147" stroke-linecap="round" stroke-linejoin="round"/>
<path d="M27.3102 45.8334C28.0433 44.3766 28.2501 44.5364 27.8365 42.948L27.3008 40.6641" stroke="#4550E5" stroke-linecap="round" stroke-linejoin="round"/>
<path d="M18.3926 34.541C21.3908 34.541 23.8815 32.8868 24.4079 30.7063C23.5338 30.3007 22.6205 29.9857 21.6822 29.7664V26.082H15.103V29.7758C14.1682 29.9967 13.2581 30.3116 12.3867 30.7157C12.9037 32.8868 15.3944 34.541 18.3926 34.541Z" fill="white"/>
<path d="M18.3926 34.541C21.3908 34.541 23.8815 32.8868 24.4079 30.7063C23.5338 30.3007 22.6205 29.9857 21.6822 29.7664V26.082H15.103V29.7758C14.1682 29.9967 13.2581 30.3116 12.3867 30.7157C12.9037 32.8868 15.3944 34.541 18.3926 34.541Z" stroke="#5B5147" stroke-linecap="round" stroke-linejoin="round"/>
<path d="M26.92 14.4357C26.6603 14.6202 26.3581 14.7356 26.0417 14.7712C25.7253 14.8068 25.405 14.7613 25.111 14.639C24.8169 14.5168 24.5587 14.3217 24.3605 14.0722C24.1624 13.8227 24.0308 13.5269 23.9781 13.2126C21.0833 16.2046 20.3502 10.1358 20.1528 9.18555C19.9836 13.9465 16.3932 12.5351 16.3932 10.5216C15.5191 14.5486 13.6958 14.1535 12.7559 13.2126C12.6998 13.5238 12.5663 13.8158 12.3676 14.0617C12.169 14.3076 11.9117 14.4994 11.6194 14.6195C11.3272 14.7395 11.0094 14.7838 10.6955 14.7484C10.3816 14.713 10.0817 14.599 9.82342 14.4169L10.1524 17.3807C10.1881 17.6172 10.176 17.8584 10.1169 18.0902C10.0577 18.3219 9.95276 18.5394 9.80815 18.7298C9.66354 18.9202 9.48224 19.0796 9.27499 19.1985C9.06774 19.3175 8.83874 19.3937 8.60156 19.4224C8.7152 19.4519 8.83195 19.4677 8.94932 19.4695H9.07151C9.42394 21.6799 10.552 23.6921 12.2531 25.1447C13.9542 26.5974 16.1169 27.3954 18.3529 27.3954C20.5889 27.3954 22.7516 26.5974 24.4527 25.1447C26.1538 23.6921 27.2818 21.6799 27.6343 19.4695H27.7471C27.8722 19.4788 27.9979 19.4788 28.123 19.4695C25.9707 19.1308 26.6756 16.6845 26.92 14.4357Z" fill="white" stroke="#5B5147" stroke-linecap="round" stroke-linejoin="round"/>
<path d="M23.554 16.6741C23.4398 16.3939 23.2446 16.1542 22.9935 15.9855C22.7424 15.8167 22.4467 15.7266 22.1442 15.7266C21.8417 15.7266 21.546 15.8167 21.2949 15.9855C21.0438 16.1542 20.8486 16.3939 20.7344 16.6741" stroke="#5B5147" stroke-linecap="round" stroke-linejoin="round"/>
<path d="M16.0423 16.6727C15.9247 16.3961 15.7283 16.1602 15.4776 15.9944C15.227 15.8286 14.933 15.7402 14.6325 15.7402C14.3319 15.7402 14.038 15.8286 13.7873 15.9944C13.5367 16.1602 13.3403 16.3961 13.2227 16.6727" stroke="#5B5147" stroke-linecap="round" stroke-linejoin="round"/>
<path d="M12.9835 20.9044C13.6323 20.9044 14.1583 20.3784 14.1583 19.7295C14.1583 19.0807 13.6323 18.5547 12.9835 18.5547C12.3346 18.5547 11.8086 19.0807 11.8086 19.7295C11.8086 20.3784 12.3346 20.9044 12.9835 20.9044Z" fill="#F5F0EC"/>
<path d="M23.792 20.9044C24.4409 20.9044 24.9669 20.3784 24.9669 19.7295C24.9669 19.0807 24.4409 18.5547 23.792 18.5547C23.1432 18.5547 22.6172 19.0807 22.6172 19.7295C22.6172 20.3784 23.1432 20.9044 23.792 20.9044Z" fill="#F5F0EC"/>
<path d="M15.5781 22.123C16.3373 22.8492 17.3473 23.2545 18.3978 23.2545C19.4483 23.2545 20.4583 22.8492 21.2175 22.123" stroke="#5B5147" stroke-linecap="round" stroke-linejoin="round"/>
<path d="M6.45312 17.8052C6.50797 18.3038 6.7586 18.7602 7.14991 19.074C7.54121 19.3878 8.04113 19.5332 8.53967 19.4784C9.03822 19.4236 9.49456 19.1729 9.80831 18.7815C10.1221 18.3902 10.2675 17.8902 10.2127 17.3916L9.88371 14.4307C10.1422 14.5999 10.4385 14.7027 10.7462 14.7302C11.054 14.7576 11.3637 14.7087 11.6481 14.5879C11.9324 14.4671 12.1826 14.278 12.3765 14.0375C12.5704 13.7969 12.7021 13.5122 12.7598 13.2087C13.6997 14.1487 15.4854 14.5435 16.3219 10.5203C16.3219 12.5883 19.9499 13.8855 20.0815 9.18555C20.2789 10.1255 21.0214 16.2072 23.9068 13.2087C23.9622 13.5211 24.0957 13.8145 24.2949 14.0614C24.4941 14.3084 24.7526 14.5008 25.0463 14.6209C25.3399 14.741 25.6592 14.7849 25.9744 14.7483C26.2895 14.7117 26.5903 14.596 26.8487 14.4119C26.6137 16.5268 25.8336 19.187 28.1833 19.4502C28.429 19.4776 28.6776 19.4563 28.9151 19.3875C29.1525 19.3187 29.374 19.2037 29.567 19.0492C29.7599 18.8947 29.9205 18.7036 30.0395 18.4869C30.1585 18.2702 30.2336 18.0322 30.2605 17.7864" stroke="#5B5147" stroke-linecap="round" stroke-linejoin="round"/>
<path d="M47.9893 43.0086C47.9893 42.759 47.8903 42.5197 47.714 42.3433C47.5378 42.1668 47.2987 42.0677 47.0494 42.0677H40.9496C40.7003 42.0677 40.4612 41.9686 40.285 41.7921C40.1087 41.6157 40.0097 41.3764 40.0097 41.1268V35.0112C40.0097 34.7616 39.9106 34.5223 39.7344 34.3459C39.5581 34.1694 39.3191 34.0703 39.0698 34.0703H34.3703C34.1211 34.0703 33.882 34.1694 33.7057 34.3459C33.5295 34.5223 33.4305 34.7616 33.4305 35.0112V41.1268C33.4305 41.3764 33.3314 41.6157 33.1552 41.7921C32.9789 41.9686 32.7398 42.0677 32.4906 42.0677H26.3813C26.132 42.0677 25.893 42.1668 25.7167 42.3433C25.5404 42.5197 25.4414 42.759 25.4414 43.0086V47.7129C25.4414 47.9624 25.5404 48.2017 25.7167 48.3782C25.893 48.5546 26.132 48.6538 26.3813 48.6538H32.4906C32.7398 48.6538 32.9789 48.7529 33.1552 48.9293C33.3314 49.1058 33.4305 49.3451 33.4305 49.5946V55.7103C33.4305 55.9598 33.5295 56.1991 33.7057 56.3755C33.882 56.552 34.1211 56.6511 34.3703 56.6511H39.0698C39.3191 56.6511 39.5581 56.552 39.7344 56.3755C39.9106 56.1991 40.0097 55.9598 40.0097 55.7103V49.5946C40.0097 49.3451 40.1087 49.1058 40.285 48.9293C40.4612 48.7529 40.7003 48.6538 40.9496 48.6538H47.0588C47.3081 48.6538 47.5472 48.5546 47.7234 48.3782C47.8997 48.2017 47.9987 47.9624 47.9987 47.7129L47.9893 43.0086Z" fill="white"/>
<path d="M47.9893 43.0086C47.9893 42.759 47.8903 42.5197 47.714 42.3433C47.5378 42.1668 47.2987 42.0677 47.0494 42.0677H40.9496C40.7003 42.0677 40.4612 41.9686 40.285 41.7921C40.1087 41.6157 40.0097 41.3764 40.0097 41.1268V35.0112C40.0097 34.7616 39.9106 34.5223 39.7344 34.3459C39.5581 34.1694 39.3191 34.0703 39.0698 34.0703H34.3703C34.1211 34.0703 33.882 34.1694 33.7057 34.3459C33.5295 34.5223 33.4305 34.7616 33.4305 35.0112V41.1268C33.4305 41.3764 33.3314 41.6157 33.1552 41.7921C32.9789 41.9686 32.7398 42.0677 32.4906 42.0677H26.3813C26.132 42.0677 25.893 42.1668 25.7167 42.3433C25.5404 42.5197 25.4414 42.759 25.4414 43.0086V47.7129C25.4414 47.9624 25.5404 48.2017 25.7167 48.3782C25.893 48.5546 26.132 48.6538 26.3813 48.6538H32.4906C32.7398 48.6538 32.9789 48.7529 33.1552 48.9293C33.3314 49.1058 33.4305 49.3451 33.4305 49.5946V55.7103C33.4305 55.9598 33.5295 56.1991 33.7057 56.3755C33.882 56.552 34.1211 56.6511 34.3703 56.6511H39.0698C39.3191 56.6511 39.5581 56.552 39.7344 56.3755C39.9106 56.1991 40.0097 55.9598 40.0097 55.7103V49.5946C40.0097 49.3451 40.1087 49.1058 40.285 48.9293C40.4612 48.7529 40.7003 48.6538 40.9496 48.6538H47.0588C47.3081 48.6538 47.5472 48.5546 47.7234 48.3782C47.8997 48.2017 47.9987 47.9624 47.9987 47.7129L47.9893 43.0086Z" stroke="#4DAF7C" stroke-linecap="round" stroke-linejoin="round"/>
</svg>
