<svg width="153" height="199" viewBox="0 0 153 199" fill="none" xmlns="http://www.w3.org/2000/svg">
<path opacity="0.05" d="M0 32.018C9.2552 21.3932 20.6314 13.4007 34.1285 8.0404C47.6257 2.68013 61.6049 0 76.0662 0C90.1418 0 102.868 2.4887 114.244 7.46609C125.62 12.3478 134.682 19.6224 141.431 29.29C148.18 38.862 151.554 49.9654 151.554 62.6003C151.554 78.5854 145.143 94.2833 132.32 109.694C119.595 125.105 99.638 142.621 72.4509 162.244H153V199H4.33837V166.408C21.9811 153.39 36.0567 142.861 46.5652 134.82C57.0737 126.78 66.811 118.979 75.7769 111.417C84.7429 103.759 91.3469 97.3463 95.5888 92.1775C99.9272 87.0087 103.205 82.0313 105.422 77.2453C107.736 72.3636 108.893 67.482 108.893 62.6003C108.893 54.4642 105.76 48.1946 99.4934 43.7915C93.2268 39.2927 85.707 37.0433 76.9338 37.0433C56.0132 37.0433 38.3223 44.5572 23.8611 59.5851L0 32.018Z" fill="#5B5147"/>
</svg>
