<svg width="49" height="50" viewBox="0 0 49 50" fill="none" xmlns="http://www.w3.org/2000/svg">
<path d="M44.25 12.9862C44.378 12.4584 44.4451 11.9177 44.45 11.3746C44.4553 10.0795 44.0977 8.80898 43.418 7.70709C42.7384 6.60519 41.7637 5.71609 40.6047 5.14069C39.4457 4.56529 38.1488 4.32664 36.8612 4.45182C35.5735 4.57699 34.3467 5.06099 33.32 5.84887C31.4775 3.67943 29.0144 2.1281 26.2632 1.40429C23.5121 0.680482 20.6053 0.819042 17.9353 1.80127C15.2653 2.7835 12.9606 4.5621 11.3324 6.89699C9.70413 9.23187 8.83071 12.0106 8.83 14.8581C8.83 14.8581 8.83 14.9082 8.83 14.9382C8.53827 14.8962 8.24453 14.8695 7.95 14.8581C7.03732 14.8581 6.13356 15.0381 5.29035 15.3877C4.44714 15.7374 3.68098 16.2498 3.03561 16.8958C2.39024 17.5419 1.87831 18.3088 1.52904 19.1529C1.17977 19.997 1 20.9017 1 21.8153C1 22.7289 1.17977 23.6336 1.52904 24.4777C1.87831 25.3218 2.39024 26.0887 3.03561 26.7348C3.68098 27.3808 4.44714 27.8932 5.29035 28.2429C6.13356 28.5925 7.03732 28.7725 7.95 28.7725H39.24C41.0824 28.7709 42.8764 28.1825 44.3626 27.0926C45.8487 26.0026 46.9499 24.4676 47.5067 22.7096C48.0635 20.9516 48.0471 19.0618 47.4598 17.3138C46.8725 15.5658 45.7449 14.0501 44.24 12.9862H44.25Z" fill="white"/>
<path d="M44.25 12.9862C44.378 12.4584 44.4451 11.9177 44.45 11.3746C44.4553 10.0795 44.0977 8.80898 43.418 7.70709C42.7384 6.60519 41.7637 5.71609 40.6047 5.14069C39.4457 4.56529 38.1488 4.32664 36.8612 4.45182C35.5735 4.57699 34.3467 5.06099 33.32 5.84887C31.4775 3.67943 29.0144 2.1281 26.2632 1.40429C23.5121 0.680482 20.6053 0.819042 17.9353 1.80127C15.2653 2.7835 12.9606 4.5621 11.3324 6.89699C9.70413 9.23187 8.83071 12.0106 8.83 14.8581C8.83 14.8581 8.83 14.9082 8.83 14.9382C8.53827 14.8962 8.24453 14.8695 7.95 14.8581C7.03732 14.8581 6.13356 15.0381 5.29035 15.3877C4.44714 15.7374 3.68098 16.2498 3.03561 16.8958C2.39024 17.5419 1.87831 18.3088 1.52904 19.1529C1.17977 19.997 1 20.9017 1 21.8153C1 22.7289 1.17977 23.6336 1.52904 24.4777C1.87831 25.3218 2.39024 26.0887 3.03561 26.7348C3.68098 27.3808 4.44714 27.8932 5.29035 28.2429C6.13356 28.5925 7.03732 28.7725 7.95 28.7725H39.24C41.0824 28.7709 42.8764 28.1825 44.3626 27.0926C45.8487 26.0026 46.9499 24.4676 47.5067 22.7096C48.0635 20.9516 48.0471 19.0618 47.4598 17.3138C46.8725 15.5658 45.7449 14.0501 44.24 12.9862H44.25Z" stroke="#5B5147" stroke-linecap="round" stroke-linejoin="round"/>
<path d="M28.4297 15.7598H14.9297C14.3993 15.7598 13.8905 15.9705 13.5155 16.3456C13.1404 16.7206 12.9297 17.2293 12.9297 17.7598C12.9297 18.2902 13.1404 18.7989 13.5155 19.174C13.8905 19.5491 14.3993 19.7598 14.9297 19.7598H28.4297V15.7598Z" fill="#F5F0EC"/>
<path d="M35.9297 17.7598C35.9297 18.2902 35.719 18.7989 35.3439 19.174C34.9688 19.5491 34.4601 19.7598 33.9297 19.7598H14.9297C14.3993 19.7598 13.8905 19.5491 13.5155 19.174C13.1404 18.7989 12.9297 18.2902 12.9297 17.7598C12.9297 17.2293 13.1404 16.7206 13.5155 16.3456C13.8905 15.9705 14.3993 15.7598 14.9297 15.7598H33.9297C34.4601 15.7598 34.9688 15.9705 35.3439 16.3456C35.719 16.7206 35.9297 17.2293 35.9297 17.7598Z" stroke="#4DAF7C" stroke-linejoin="round"/>
<path d="M32.838 38.3625C32.6522 38.1763 32.4317 38.0287 32.1889 37.9279C31.9461 37.8272 31.6858 37.7753 31.423 37.7753C31.1602 37.7753 30.8999 37.8272 30.6571 37.9279C30.4143 38.0287 30.1937 38.1763 30.008 38.3625L26.928 41.4557V28.2721C26.928 27.6084 26.6646 26.9718 26.1958 26.5025C25.7269 26.0332 25.091 25.7695 24.428 25.7695C23.7649 25.7695 23.1291 26.0332 22.6602 26.5025C22.1914 26.9718 21.928 27.6084 21.928 28.2721V41.4557L18.838 38.3625C18.4627 37.9868 17.9537 37.7758 17.423 37.7758C16.8923 37.7758 16.3833 37.9868 16.008 38.3625C15.6327 38.7382 15.4219 39.2477 15.4219 39.7789C15.4219 40.3102 15.6327 40.8197 16.008 41.1954L23.008 48.2026C23.1937 48.3888 23.4143 48.5364 23.6571 48.6372C23.8999 48.7379 24.1602 48.7898 24.423 48.7898C24.6858 48.7898 24.9461 48.7379 25.1889 48.6372C25.4317 48.5364 25.6522 48.3888 25.838 48.2026L32.838 41.1954C33.0239 41.0095 33.1715 40.7887 33.2721 40.5456C33.3728 40.3026 33.4246 40.0421 33.4246 39.7789C33.4246 39.5158 33.3728 39.2553 33.2721 39.0123C33.1715 38.7692 33.0239 38.5484 32.838 38.3625Z" fill="#F5F0EC"/>
<path d="M32.838 38.3625C32.6522 38.1763 32.4317 38.0287 32.1889 37.9279C31.9461 37.8272 31.6858 37.7753 31.423 37.7753C31.1602 37.7753 30.8999 37.8272 30.6571 37.9279C30.4143 38.0287 30.1937 38.1763 30.008 38.3625L26.928 41.4557V28.2721C26.928 27.6084 26.6646 26.9718 26.1958 26.5025C25.7269 26.0332 25.091 25.7695 24.428 25.7695C23.7649 25.7695 23.1291 26.0332 22.6602 26.5025C22.1914 26.9718 21.928 27.6084 21.928 28.2721V41.4557L18.838 38.3625C18.4627 37.9868 17.9537 37.7758 17.423 37.7758C16.8923 37.7758 16.3833 37.9868 16.008 38.3625C15.6327 38.7382 15.4219 39.2477 15.4219 39.7789C15.4219 40.3102 15.6327 40.8197 16.008 41.1954L23.008 48.2026C23.1937 48.3888 23.4143 48.5364 23.6571 48.6372C23.8999 48.7379 24.1602 48.7898 24.423 48.7898C24.6858 48.7898 24.9461 48.7379 25.1889 48.6372C25.4317 48.5364 25.6522 48.3888 25.838 48.2026L32.838 41.1954C33.0239 41.0095 33.1715 40.7887 33.2721 40.5456C33.3728 40.3026 33.4246 40.0421 33.4246 39.7789C33.4246 39.5158 33.3728 39.2553 33.2721 39.0123C33.1715 38.7692 33.0239 38.5484 32.838 38.3625V38.3625Z" stroke="#5B5147" stroke-linejoin="round"/>
</svg>
