<svg width="152" height="199" viewBox="0 0 152 199" fill="none" xmlns="http://www.w3.org/2000/svg">
<path opacity="0.05" d="M0 167.972L21.4056 140.612C27.8837 147.381 35.9577 152.741 45.6278 156.69C55.2979 160.639 64.8741 162.613 74.3565 162.613C85.8104 162.613 94.7294 160.356 101.114 155.843C107.498 151.236 110.69 145.266 110.69 137.932C110.69 130.222 107.592 124.628 101.395 121.149C95.2927 117.576 85.5287 115.79 72.1032 115.79C59.8983 115.79 51.9181 115.978 48.1627 116.354V79.4025C50.5098 79.5906 58.49 79.6846 72.1032 79.6846C83.1816 79.6846 91.8659 77.9922 98.1562 74.6074C104.446 71.1285 107.592 65.9572 107.592 59.0936C107.592 51.6657 104.259 46.0243 97.5928 42.1694C91.0209 38.3144 82.4305 36.387 71.8216 36.387C53.1386 36.387 36.8966 43.0156 23.0956 56.2729L2.53488 30.6045C20.6546 10.2015 45.2053 0 76.1872 0C98.6256 0 116.323 4.70116 129.279 14.1035C142.329 23.4118 148.854 36.1049 148.854 52.1828C148.854 63.6537 144.723 73.3381 136.461 81.236C128.199 89.0399 118.294 93.9761 106.747 96.0446C111.816 96.5148 116.886 97.8781 121.956 100.135C127.119 102.297 131.955 105.259 136.461 109.02C140.967 112.687 144.629 117.435 147.445 123.264C150.262 129.094 151.67 135.44 151.67 142.304C151.67 159.134 144.77 172.815 130.969 183.345C117.168 193.782 98.8133 199 75.9055 199C59.0064 199 43.9848 196.132 30.841 190.397C17.7911 184.661 7.51075 177.187 0 167.972Z" fill="#5B5147"/>
</svg>
