<svg width="559" height="533" viewBox="0 0 559 533" fill="none" xmlns="http://www.w3.org/2000/svg">
<g opacity="0.08">
<path d="M78.9141 397.307C79.2805 392.54 79.2805 387.772 80.38 383.004C81.8458 376.035 83.6782 369.067 85.8771 362.098C89.1753 352.929 100.536 344.127 123.257 336.425C137.183 331.657 143.047 326.523 148.544 321.021C152.209 316.987 156.24 312.953 161.371 309.285C169.067 303.784 189.589 299.016 205.714 299.016C229.535 299.016 241.995 302.316 243.094 308.551C243.461 311.852 238.33 315.153 231.733 318.454C224.404 321.755 216.708 325.056 210.112 328.356C201.316 332.758 194.72 337.525 195.453 342.66C195.819 344.494 196.186 346.328 196.918 347.795C199.484 352.929 197.651 358.064 187.757 363.199C176.396 369.434 164.669 375.302 151.842 381.537C138.649 387.772 124.723 394.007 110.431 399.875C106.4 401.709 101.635 403.542 94.3059 403.909C87.343 404.276 82.5788 403.176 81.1129 401.342C80.0135 400.242 79.647 398.775 78.9141 397.307Z" fill="black"/>
<path d="M490.098 480.182C488.999 473.58 488.266 467.346 486.8 461.111C484.235 451.942 481.669 442.406 478.004 433.237C473.24 421.134 459.681 410.864 434.028 403.162C418.269 398.395 410.94 392.16 404.71 385.191C400.312 380.423 395.548 375.289 388.951 370.888C379.79 364.286 357.068 360.252 339.478 362.452C313.458 365.386 299.898 371.621 299.898 380.057C299.898 384.824 305.762 388.492 313.458 391.793C321.887 395.461 330.682 398.761 338.378 402.796C348.639 407.93 356.335 413.432 356.335 420.4C356.335 422.968 355.969 425.168 355.236 427.735C353.404 435.071 355.969 441.672 366.963 447.907C380.156 454.876 393.716 461.844 408.375 468.446C423.4 475.414 439.891 481.649 456.016 488.251C460.78 490.085 466.277 491.919 474.34 491.552C482.036 491.185 487.166 489.351 488.266 486.417C488.999 483.85 489.732 482.016 490.098 480.182Z" fill="black"/>
<path d="M67.1875 549.503C67.9204 542.534 67.9204 535.199 69.3863 528.231C71.2187 517.962 73.4175 507.325 76.7158 497.056C80.747 483.486 94.673 470.283 122.891 458.18C139.749 450.844 147.445 442.776 154.042 434.707C158.806 428.839 163.57 422.971 170.167 417.102C179.695 408.667 204.615 401.332 224.405 400.965C253.356 400.598 269.114 405.366 269.847 414.535C270.214 419.67 263.984 424.438 255.921 429.206C247.126 434.34 237.231 439.108 229.169 444.609C218.541 451.578 210.479 458.913 210.845 465.882C211.212 468.449 211.578 471.016 212.677 473.584C215.609 480.919 213.41 488.987 201.317 497.056C187.391 506.592 172.732 515.761 157.34 524.93C141.215 534.466 123.624 543.635 106.4 553.171C101.27 555.738 95.406 558.672 86.6106 559.405C77.8152 560.139 72.3181 558.672 70.4858 555.738C69.0199 553.171 68.2869 551.337 67.1875 549.503Z" fill="black"/>
<path d="M557.529 732.883C557.895 721.147 558.628 709.41 557.895 697.674C557.162 680.803 556.063 663.932 553.864 647.061C550.932 625.056 536.64 605.617 506.223 590.58C487.899 581.411 476.538 577.377 470.308 564.54C465.911 555.371 461.146 546.202 454.183 537.767C444.289 525.297 416.803 517.228 394.082 520.162C360.733 524.563 345.707 527.131 343.508 542.534C342.409 550.97 348.639 558.305 357.801 564.907C367.329 571.875 377.957 578.477 386.386 585.812C397.746 595.715 406.175 606.351 404.343 618.087C403.61 622.488 402.877 626.889 401.411 631.29C397.014 644.127 398.479 656.964 411.306 667.967C426.331 681.17 441.723 694.373 458.215 706.843C475.439 720.047 494.129 732.516 512.819 744.986C518.316 748.654 524.546 752.321 534.808 751.588C544.702 751.221 551.299 748.287 553.864 742.786C555.33 739.485 556.429 736.184 557.529 732.883Z" fill="black"/>
</g>
<path d="M281.339 118.409C281.339 118.409 294.681 234.056 270.297 266.014C245.912 297.972 224.059 303.26 224.059 303.26C224.059 303.26 238.551 349.013 282.029 352.232C325.507 355.45 329.878 349.933 356.102 316.825C382.327 283.717 395.209 275.9 394.519 246.471C393.829 217.042 378.876 188.303 378.876 188.303C378.876 188.303 443.288 129.904 423.964 84.1513C423.964 84.1513 377.036 78.1736 329.647 123.467C329.647 123.697 315.615 113.58 281.339 118.409Z" fill="white"/>
<path d="M141.014 14.0273C141.014 14.0273 188.863 62.0795 251.204 55.182C251.204 55.182 333.559 9.88889 384.628 90.5889L408.782 169.909C408.782 169.909 443.058 243.712 415.453 318.204L208.876 289.005C208.876 289.005 204.966 271.072 166.089 273.141C166.089 273.141 151.596 212.214 188.403 172.438C188.403 172.438 155.047 167.61 158.037 149.217C161.028 130.824 201.285 96.7966 201.285 96.7966C201.285 96.7966 127.902 70.8162 141.014 14.0273Z" fill="white"/>
<path d="M382.554 182.555C382.554 182.555 421.431 234.285 394.056 312.686L361.391 315.215C396.127 271.532 403.948 236.125 377.954 185.773L382.554 182.555Z" fill="#BDCED3"/>
<path d="M159.648 275.21L184.493 273.831C184.493 273.831 178.742 253.368 178.972 231.066C179.202 208.765 172.071 195.43 172.071 195.43C172.071 195.43 160.339 249.23 159.648 275.21Z" fill="#F6B03E"/>
<path d="M256.726 53.3438C240.853 61.1609 229.351 69.4378 220.84 77.7147C229.351 68.2882 241.774 56.7925 256.496 50.125C256.266 50.3549 256.496 51.5045 256.726 53.3438Z" fill="#BDCED3"/>
<path d="M302.275 114.269C302.275 114.269 273.06 115.879 256.267 125.305C256.267 125.305 253.276 122.316 248.445 118.178C258.797 109.441 265.698 99.5548 270.529 89.8984C277.2 99.7848 287.322 109.211 302.275 114.269Z" fill="#BDCED3"/>
<path d="M168.621 38.8594C168.621 38.8594 169.541 60.0115 190.705 67.8286C211.869 75.6457 236.943 56.7927 236.943 56.7927C236.943 56.7927 176.212 48.9756 168.621 38.8594Z" fill="#F6B03E"/>
<path d="M304.117 43.6836C304.117 43.6836 289.625 58.1682 305.268 67.8246C320.68 77.481 317.46 93.575 331.952 95.6443C346.445 97.7135 368.299 79.7802 365.538 69.8938C365.538 69.8938 333.563 47.5921 304.117 43.6836Z" fill="#F6B03E"/>
<path d="M270.302 89.6663C265.471 99.3228 258.57 109.209 248.218 117.946C237.866 108.979 219.693 94.7245 207.73 94.2646C207.73 94.2646 212.331 86.9074 220.613 77.7108C229.124 69.4339 240.626 60.927 256.499 53.3398C257.649 59.7775 260.64 75.4116 270.302 89.6663Z" fill="#C8862A"/>
<path d="M207.956 94.2653C219.918 94.4952 238.091 108.75 248.443 117.947C237.401 127.603 222.218 135.88 201.975 141.168C201.975 141.168 188.862 109.44 220.838 77.9414C212.557 86.9081 207.956 94.2653 207.956 94.2653Z" fill="#675852"/>
<path d="M270.295 89.6665C260.633 75.4118 257.643 60.0075 256.723 53.34C263.624 49.8913 271.215 46.6725 279.957 43.6836C279.957 43.6836 282.027 65.7554 270.295 89.6665Z" fill="#F6B03E"/>
<path d="M230.042 302.109C230.042 302.109 261.558 345.793 295.144 336.597V353.15C295.144 353.15 224.521 359.128 230.042 302.109Z" fill="#BDCED3"/>
<path d="M361.624 305.098C361.624 305.098 328.958 346.022 295.372 336.826V353.38C295.142 353.15 339.31 368.554 361.624 305.098Z" fill="#BDCED3"/>
<path d="M294.22 115.418C294.22 115.418 322.975 320.271 222.217 299.349C222.217 299.349 187.481 271.07 201.743 224.627L204.044 190.14C204.044 190.14 193.002 178.414 190.701 165.539C190.701 165.539 172.988 180.254 156.195 150.135C156.195 150.135 176.669 95.1851 208.875 96.5646L256.263 125.074C256.263 125.074 271.676 114.958 294.22 115.418Z" fill="#F6B03E"/>
<path d="M232.112 148.297C232.112 148.297 208.418 188.532 213.019 240.263C217.619 291.993 253.506 297.971 253.506 297.971L228.661 302.799C228.891 302.799 154.818 244.861 232.112 148.297Z" fill="#D8922A"/>
<path d="M207.958 113.809C207.958 113.809 229.582 129.213 226.591 150.825C225.211 162.091 204.277 195.428 204.277 195.428C204.277 195.428 189.555 177.955 193.466 164.39C197.146 150.825 207.958 113.809 207.958 113.809Z" fill="#C96E31"/>
<path d="M402.342 100.707C402.342 100.707 410.163 136.114 374.737 174.28C374.737 174.28 352.883 149.679 363.695 129.676C374.277 109.674 402.342 100.707 402.342 100.707Z" fill="#DC7A35"/>
<path d="M413.386 343.724H366.687C360.706 343.724 357.026 336.367 359.556 330.159C364.847 318.433 376.349 310.156 389.921 310.156C403.724 310.156 415.456 318.663 420.517 330.849C423.047 336.826 419.137 343.724 413.386 343.724Z" fill="#BDCED3"/>
<path d="M413.386 343.724H382.331C378.42 343.724 375.889 336.367 377.73 330.159C381.18 318.433 389.002 310.156 397.973 310.156C407.175 310.156 414.996 318.663 418.217 330.849C419.827 336.826 417.067 343.724 413.386 343.724Z" fill="#F7F4F2"/>
<path d="M322.746 337.057C322.746 347.173 309.634 362.348 293.301 362.348C276.968 362.348 263.855 347.173 263.855 337.057C263.855 326.941 276.968 318.664 293.301 318.664C309.634 318.664 322.746 326.711 322.746 337.057Z" fill="#2B2010"/>
<path d="M302.962 331.306C302.962 333.606 298.592 337.054 292.841 337.054C287.09 337.054 282.719 333.606 282.719 331.306C282.719 329.007 287.09 327.168 292.841 327.168C298.592 327.168 302.962 329.007 302.962 331.306Z" fill="white"/>
<path d="M254.654 264.405C258.104 272.222 254.654 281.649 249.363 283.718C243.842 285.787 236.48 281.189 233.03 273.372C229.579 265.555 230.959 257.508 236.48 255.208C242.001 253.139 251.203 256.358 254.654 264.405Z" fill="#2B2010"/>
<path d="M331.257 265.326C327.806 273.144 332.177 281.65 337.468 283.72C342.989 285.789 350.35 281.191 353.801 273.373C357.251 265.556 355.871 257.509 350.35 255.21C344.829 252.911 334.707 257.509 331.257 265.326Z" fill="#2B2010"/>
<path d="M398.12 96.8994C396.536 97.4615 393.942 98.5687 390.669 100.28C385.269 103.102 379.875 106.644 374.823 110.979C368.065 116.777 362.443 123.557 358.366 131.392C353.474 140.596 354.285 152.107 360.367 160.792C370.226 175.096 379.44 195.176 386.426 222.162C393.242 248.156 386.674 269.491 372.433 286.199C364.496 295.411 358.078 304.39 352.903 313.835C347.336 323.904 340.804 332.846 333.577 339.498C331.225 341.611 328.667 343.294 325.967 344.546C318.501 348.011 310.373 348.089 302.736 346.087C301.666 345.807 300.713 345.509 299.896 345.216C299.442 345.054 299.16 344.941 299.067 344.9C296.159 343.625 292.766 344.947 291.49 347.854C290.214 350.761 291.537 354.152 294.446 355.427C295.553 355.913 297.386 356.569 299.818 357.207C309.82 359.828 320.57 359.726 330.812 354.973C334.542 353.242 338.06 350.928 341.318 348.001C349.623 340.356 356.853 330.459 362.981 319.376C367.75 310.672 373.707 302.337 381.169 293.677C397.696 274.285 405.412 249.223 397.557 219.265C390.236 190.988 380.458 169.676 369.815 154.235C366.164 149.022 365.679 142.137 368.547 136.741C371.927 130.245 376.615 124.591 382.315 119.701C386.658 115.975 391.331 112.906 395.998 110.467C397.623 109.618 399.124 108.911 400.458 108.341C401.226 108.014 401.744 107.812 401.97 107.732C404.963 106.67 406.527 103.384 405.464 100.392C404.401 97.4008 401.113 95.837 398.12 96.8994Z" fill="#2B2010"/>
<path d="M325.277 137.108C325.354 137.029 325.523 136.856 325.781 136.596C326.223 136.15 326.748 135.63 327.351 135.041C329.09 133.345 331.105 131.451 333.37 129.407C339.852 123.558 347.015 117.707 354.637 112.255C371.743 100.021 388.569 91.6381 403.981 88.8155C409.495 87.8056 414.745 87.5315 419.706 88.0299C419.479 88.0055 419.708 88.0854 419.99 88.3193C421.082 89.2264 421.739 91.3306 421.037 95.9287C420.989 96.2405 420.938 96.5873 420.887 96.9602C420.713 98.2131 419.965 104.532 419.721 106.393C419.133 110.872 418.476 114.91 417.614 119.036C415.322 130.005 411.844 140.193 406.683 149.758C400.113 161.933 391.106 172.48 379.18 181.118C376.608 182.981 376.034 186.575 377.898 189.145C379.762 191.716 383.358 192.289 385.93 190.427C399.298 180.743 409.438 168.87 416.806 155.214C422.538 144.592 426.369 133.372 428.873 121.386C429.8 116.948 430.503 112.634 431.126 107.887C431.385 105.913 432.126 99.6508 432.28 98.5378C432.323 98.2239 432.365 97.9381 432.406 97.6768C433.683 89.3078 431.759 83.1462 427.339 79.4765C426.041 78.3989 424.646 77.6433 423.234 77.1508C422.318 76.8314 421.524 76.6637 420.9 76.5963C414.772 75.9806 408.444 76.3109 401.908 77.5081C384.543 80.6884 366.305 89.7743 347.943 102.907C339.942 108.629 332.448 114.751 325.662 120.874C323.283 123.021 321.16 125.017 319.318 126.813C318.2 127.904 317.416 128.694 316.991 129.136C314.788 131.423 314.857 135.061 317.145 137.263C319.434 139.464 323.074 139.395 325.277 137.108Z" fill="#2B2010"/>
<path d="M162.621 147.912C163.634 146.186 165.034 143.956 166.655 141.502C170.585 135.552 175.251 129.108 179.969 123.248C191.755 108.611 202.388 99.6707 207.586 100.004C211.913 100.281 219.225 103.849 228.205 110.02C231.526 112.302 235.016 114.893 238.624 117.736C243.79 121.805 248.935 126.177 253.811 130.55C255.518 132.08 257.068 133.5 258.43 134.773C259.242 135.53 259.806 136.066 260.093 136.342C262.379 138.545 266.02 138.478 268.224 136.192C270.429 133.907 270.362 130.268 268.075 128.065C267.983 127.977 267.827 127.828 267.597 127.609C267.22 127.251 266.78 126.837 266.282 126.372C264.865 125.049 263.258 123.577 261.492 121.993C256.446 117.468 251.12 112.943 245.744 108.708C241.95 105.719 238.263 102.981 234.721 100.547C224.116 93.2596 215.35 88.9818 208.321 88.5315C197.697 87.8508 185.345 98.2367 171.009 116.041C161.373 128.007 151.097 143.565 150.341 147.093C149.304 151.93 154.605 159.676 161.49 165.175C170.118 172.065 180.485 174.87 191.273 171.485C200.689 168.44 205.644 157.526 208.45 141.092C209.45 135.232 210.086 129.002 210.434 122.757C210.649 118.909 210.719 115.807 210.714 113.825C210.699 110.608 208.111 108.047 204.935 108.063C201.759 108.078 199.197 110.664 199.212 113.838C199.217 115.626 199.151 118.509 198.95 122.117C198.624 127.959 198.031 133.773 197.112 139.158C195.012 151.457 191.427 159.353 187.78 160.532C181.062 162.64 174.528 160.872 168.67 156.194C166.346 154.338 164.312 152.134 162.886 150.05C162.579 149.602 162.317 149.181 162.106 148.807C162.259 148.535 162.432 148.235 162.621 147.912Z" fill="#2B2010"/>
<path d="M186.352 164.142C186.338 164.303 186.322 164.548 186.308 164.872C186.019 171.34 187.045 179.198 190.577 186.919C192.872 191.935 196.072 196.367 200.284 200.006C202.687 202.082 206.319 201.818 208.396 199.417C210.473 197.015 210.209 193.385 207.806 191.309C204.902 188.8 202.673 185.713 201.037 182.139C199.535 178.856 198.592 175.293 198.117 171.657C197.794 169.178 197.726 167.016 197.798 165.385C197.806 165.211 197.813 165.113 197.814 165.097C198.078 161.933 195.726 159.155 192.56 158.891C189.395 158.628 186.615 160.978 186.352 164.142Z" fill="#2B2010"/>
<path d="M256.429 128.086C256.838 127.869 257.733 127.436 259.065 126.858C261.35 125.867 263.981 124.869 266.91 123.935C286.252 117.768 306.723 117.554 325.762 127.104C326.381 127.414 326.997 127.735 327.61 128.065C330.405 129.572 333.894 128.529 335.402 125.735C336.91 122.941 335.866 119.455 333.07 117.947C332.358 117.563 331.641 117.191 330.922 116.83C308.81 105.738 285.368 105.984 263.414 112.983C257.716 114.8 253.477 116.639 251.044 117.927C248.238 119.413 247.168 122.892 248.655 125.697C250.141 128.502 253.622 129.572 256.429 128.086Z" fill="#2B2010"/>
<path d="M168.595 268.943C166.104 241.55 170.874 216.513 180.353 194.546C183.058 188.277 185.95 182.752 188.831 178.03C189.828 176.395 190.748 174.982 191.567 173.8C192.039 173.117 192.359 172.68 192.502 172.494C194.438 169.977 193.966 166.368 191.448 164.433C188.93 162.499 185.319 162.97 183.383 165.487C182.456 166.692 180.931 168.896 179.01 172.045C175.858 177.213 172.717 183.213 169.791 189.994C159.593 213.627 154.463 240.551 157.141 269.983C157.428 273.145 160.225 275.475 163.389 275.187C166.552 274.9 168.883 272.104 168.595 268.943Z" fill="#2B2010"/>
<path d="M401.221 169.24C419.305 210.231 424.923 259.977 409.451 315.985C408.606 319.045 410.402 322.211 413.464 323.056C416.526 323.901 419.693 322.105 420.538 319.045C436.763 260.312 430.843 207.889 411.745 164.602C410.464 161.698 407.069 160.381 404.163 161.662C401.256 162.943 399.939 166.336 401.221 169.24Z" fill="#2B2010"/>
<path d="M363.697 349.473C353.158 349.473 346.417 338.114 350.83 328.562C357.149 314.009 371.82 304.41 388.311 304.41C404.444 304.41 418.866 313.645 425.469 327.667C430.2 337.489 423.612 349.473 412.926 349.473H363.697ZM363.697 337.978H412.926C414.757 337.978 416.309 335.154 415.083 332.608C410.348 322.551 399.969 315.906 388.311 315.906C376.397 315.906 365.874 322.791 361.327 333.259C360.294 335.497 361.766 337.978 363.697 337.978Z" fill="#2B2010"/>
<path d="M151.828 305.099H198.526C204.507 305.099 208.188 297.741 205.657 291.534C200.367 279.808 188.864 271.531 175.292 271.531C161.49 271.531 149.757 280.038 144.697 292.224C141.936 297.971 146.077 305.099 151.828 305.099Z" fill="#BDCED3"/>
<path d="M151.824 305.099H182.88C186.791 305.099 189.321 297.741 187.481 291.534C184.03 279.808 176.209 271.531 167.237 271.531C158.036 271.531 150.214 280.038 146.994 292.224C145.153 297.971 147.914 305.099 151.824 305.099Z" fill="#F7F4F2"/>
<path d="M175.288 265.781C190.794 265.781 204.529 275.059 210.979 289.363C214.961 299.13 208.907 310.844 198.522 310.844H151.824C141.675 310.844 135.078 299.235 139.436 289.887C145.524 275.371 159.472 265.781 175.288 265.781ZM151.824 299.349H198.522C199.978 299.349 201.461 296.48 200.411 293.895C195.866 283.823 186.175 277.277 175.288 277.277C164.146 277.277 154.307 284.064 150.004 294.425L149.877 294.709C148.915 296.711 150.402 299.349 151.824 299.349Z" fill="#2B2010"/>
<path d="M218.767 130.41C219.338 130.886 220.589 132.434 221.984 135.294C222.151 135.637 222.315 135.991 222.476 136.356C225.124 142.03 224.959 146.965 222.031 150.769C210.477 166.297 199.68 188.463 191.58 219.498C183.377 250.444 191.896 275.986 209.441 295.387C215.613 302.241 220.749 309.449 224.724 316.977C231.564 329.673 238.976 340.231 247.806 348.215C251.078 351.155 254.595 353.469 258.326 355.2C268.568 359.953 279.318 360.055 289.32 357.434C291.752 356.796 293.585 356.14 294.692 355.654C297.601 354.379 298.924 350.988 297.648 348.081C296.372 345.174 292.979 343.852 290.071 345.127C289.978 345.168 289.695 345.281 289.242 345.443C288.425 345.736 287.472 346.034 286.402 346.314C278.765 348.316 270.636 348.238 263.17 344.773C260.471 343.521 257.913 341.838 255.508 339.678C247.854 332.757 241.123 323.169 234.874 311.569C230.459 303.209 224.775 295.231 217.982 287.687C202.84 270.944 195.598 249.23 202.704 222.421C210.431 192.816 220.576 171.989 231.205 157.703C236.925 150.272 237.241 140.797 232.951 131.61C232.783 131.224 232.555 130.734 232.323 130.257C231.102 127.754 229.766 125.665 228.395 123.967C227.49 122.847 226.709 122.06 226.131 121.578C223.691 119.546 220.064 119.876 218.031 122.314C215.997 124.753 216.327 128.377 218.767 130.41Z" fill="#2B2010"/>
<path d="M210.718 96.2392C230.018 66.4076 261.499 48.2848 295.604 48.2848C326.962 48.2848 355.94 63.4608 375.678 89.4647C377.597 91.9938 381.205 92.4886 383.735 90.57C386.266 88.6514 386.761 85.0459 384.841 82.5168C362.982 53.7183 330.657 36.7891 295.604 36.7891C257.487 36.7891 222.424 56.9736 201.059 89.9971C199.334 92.6628 200.098 96.2211 202.766 97.9448C205.433 99.6685 208.993 98.9049 210.718 96.2392Z" fill="#2B2010"/>
<path d="M188.777 53.4679C207.735 59.1216 227.446 60.5743 244.273 59.7274C245.73 59.6541 246.774 59.5792 247.356 59.5261C250.52 59.2379 252.85 56.4415 252.562 53.2802C252.273 50.1188 249.475 47.7897 246.312 48.0779C245.881 48.1172 244.992 48.181 243.694 48.2463C228.06 49.0331 209.561 47.6698 192.066 42.4522C169.651 35.7678 153.38 23.8155 145.364 5.51406C141.781 -2.36566 130.081 -0.519346 129.307 7.98845C127.752 22.3169 129.827 37.5829 137.396 52.2923C147.629 72.1774 166.771 88.4408 196.252 99.6398C199.221 100.768 202.543 99.2764 203.672 96.309C204.8 93.3417 203.308 90.0219 200.339 88.8941C173.423 78.6699 156.509 64.2987 147.625 47.0348C143.132 38.3037 140.911 29.3118 140.433 20.4795C150.934 36.4328 167.653 47.1683 188.777 53.4679Z" fill="#2B2010"/>
<path d="M156.43 293.603V305.099C156.43 308.274 159.005 310.847 162.181 310.847C165.357 310.847 167.932 308.274 167.932 305.099V293.603C167.932 290.429 165.357 287.855 162.181 287.855C159.005 287.855 156.43 290.429 156.43 293.603Z" fill="#2B2010"/>
<path d="M176.902 293.603V305.099C176.902 308.274 179.477 310.847 182.653 310.847C185.83 310.847 188.404 308.274 188.404 305.099V293.603C188.404 290.429 185.83 287.855 182.653 287.855C179.477 287.855 176.902 290.429 176.902 293.603Z" fill="#2B2010"/>
<path d="M394.289 331.08V342.576C394.289 345.75 396.864 348.323 400.04 348.323C403.216 348.323 405.791 345.75 405.791 342.576V331.08C405.791 327.905 403.216 325.332 400.04 325.332C396.864 325.332 394.289 327.905 394.289 331.08Z" fill="#2B2010"/>
<path d="M376.117 331.08V342.576C376.117 345.75 378.692 348.323 381.868 348.323C385.044 348.323 387.619 345.75 387.619 342.576V331.08C387.619 327.905 385.044 325.332 381.868 325.332C378.692 325.332 376.117 327.905 376.117 331.08Z" fill="#2B2010"/>
<path d="M252.584 234.744C254.424 240.721 246.832 240.721 238.091 243.48C229.349 246.239 223.138 250.148 221.298 244.17C219.458 238.192 223.598 226.467 232.11 223.938C240.851 221.409 250.743 228.766 252.584 234.744Z" fill="#F28C3C"/>
<path d="M366.455 222.1C365.305 228.307 358.403 224.859 349.662 223.019C340.92 221.18 333.329 222.1 334.479 215.892C335.629 209.684 344.831 201.177 353.572 203.017C362.314 204.856 367.605 215.892 366.455 222.1Z" fill="#F28C3C"/>
<path d="M250.669 277.756C252.309 277.069 253.16 275.372 252.57 273.967C251.98 272.562 250.172 271.98 248.532 272.668C246.892 273.356 246.041 275.053 246.631 276.458C247.221 277.863 249.029 278.444 250.669 277.756Z" fill="#E5D6C1"/>
<path d="M339.175 272.647C337.535 271.959 335.727 272.54 335.137 273.945C334.547 275.35 335.398 277.047 337.038 277.735C338.678 278.423 340.486 277.841 341.076 276.436C341.666 275.031 340.815 273.335 339.175 272.647Z" fill="#E5D6C1"/>
</svg>
