<svg width="421" height="469" viewBox="0 0 421 469" fill="none" xmlns="http://www.w3.org/2000/svg">
<path opacity="0.08" d="M365.05 0.00423337C363.907 0.0187913 362.734 0.0747442 361.568 0.1659C315.158 8.16322 289.64 57.1558 285.942 100.359C280.539 139.561 297.844 189.949 340.962 198.733C347.216 199.922 353.714 199.378 359.828 197.722C411.748 180.342 434.983 118.955 427.478 68.1063C425.297 35.2655 400.498 -0.447061 365.05 0.00423337ZM168.293 2.1059C139.435 2.81307 116.956 32.0315 112.383 59.4975C102.743 113.914 127.538 181.526 184.325 198.733C189.644 199.888 195.146 200.007 200.519 199.177C238.901 192.792 255.16 149.832 253.554 115.151C252.399 69.4028 228.595 16.5047 181.005 3.64173C176.655 2.49013 172.415 2.00487 168.293 2.1059ZM490.797 156.659C440.875 159.641 406.649 209.367 401.77 255.801C395.163 289.29 413.048 334.082 451.324 336.756C504.695 336.099 541.105 279.166 542.618 230.177C545.993 197.777 526.876 158.448 490.797 156.659ZM53.8416 167.693C32.6028 167.51 11.7143 180.211 4.77369 201.764C-13.7428 259.42 23.4407 332.44 84.6102 344.556C110.139 348.917 132.571 329.345 138.901 305.797C152.315 255.428 124.762 196.943 78.1326 174.079C70.5358 169.822 62.1524 167.764 53.8416 167.693ZM277.643 271.079C236.006 271.167 193.715 292.261 166.754 323.661C137.634 360.258 113.78 402.847 104.448 449.033C93.1103 482.28 118.807 520.542 154.406 520.773C197.235 521.96 234.043 492.6 276.631 490.42C312.763 484.921 345.116 503.683 377.601 515.963C405.259 527.773 443.478 523.247 457.599 493.532C468.706 463.244 452.357 430.948 438.814 404.049C411.191 360.39 381.597 314.505 336.306 287.245C318.152 276.012 297.977 271.035 277.643 271.079Z" fill="black"/>
</svg>
