<svg width="1189" height="884" viewBox="0 0 1189 884" fill="none" xmlns="http://www.w3.org/2000/svg">
<path opacity="0.08" d="M753.15 197.265C753.461 197.177 753.776 197.076 754.087 196.966C766.145 191.39 769.504 176.117 767.343 164.023C765.94 152.898 757.53 140.37 745.139 141.114C743.348 141.245 741.617 141.868 740.073 142.767C727.202 151.315 725.374 169.813 731.148 183.182C734.151 192.012 743.526 199.976 753.15 197.265ZM806.601 182.326C814.411 180.026 818.393 170.388 817.624 162.537C816.26 146.939 804.546 130.243 787.813 129.679C786.279 129.751 784.772 130.12 783.368 130.74C773.38 135.289 772.101 148.235 775.082 157.609C778.752 170.047 789.116 182.787 803.025 182.834C804.295 182.832 805.485 182.655 806.601 182.326ZM707.403 163.567C720.785 159.107 726.463 142.998 724.387 129.933C723.73 120.285 715.573 109.33 704.949 111.393C690.457 115.469 684.713 133.71 687.893 147.228C689.35 156.343 697.442 165.712 707.403 163.567ZM825.638 128.65C831.438 127.149 836.198 122.148 836.508 115.742C837.324 98.6099 821.839 81.3384 804.285 82.4876C797.01 83.1575 792.334 90.1519 792.337 97.0594C792.376 111.825 804.172 125.821 818.552 128.675C820.934 129.285 823.369 129.237 825.638 128.65ZM757.084 116.69C768.421 113.626 778.395 104.766 783.438 94.2033C788.687 82.0606 792.063 68.6626 791.218 55.34C791.869 45.4125 782.062 36.816 772.346 39.3517C760.591 42.1531 752.716 52.8761 741.273 56.5818C731.832 60.7245 721.642 57.951 711.891 56.9613C703.49 55.748 693.409 59.7768 691.742 68.9408C690.937 78.0416 697.76 85.6877 703.422 92.0611C714.15 101.994 725.577 112.393 739.916 116.548C745.685 118.297 751.547 118.186 757.084 116.69Z" fill="black"/>
<path opacity="0.08" d="M1036.75 347.166C1037.05 347.286 1037.36 347.398 1037.67 347.5C1050.63 350.431 1062.61 340.374 1068.27 329.47C1073.94 319.797 1074.91 304.739 1064.63 297.774C1063.14 296.786 1061.38 296.224 1059.61 295.996C1044.2 294.924 1031.47 308.471 1027.9 322.589C1024.89 331.418 1027.47 343.447 1036.75 347.166ZM1088.22 367.914C1095.82 370.852 1104.85 365.64 1109.03 358.949C1117.46 345.754 1118.35 325.378 1105.43 314.729C1104.17 313.851 1102.75 313.224 1101.26 312.86C1090.57 310.376 1081.66 319.857 1078.31 329.105C1073.64 341.201 1074.08 357.619 1085.08 366.136C1086.09 366.908 1087.14 367.494 1088.22 367.914ZM1021.03 292.564C1034.36 297.188 1048.68 287.881 1055 276.259C1060.37 268.211 1060.58 254.555 1050.9 249.712C1036.93 244.107 1021.25 255.063 1015.53 267.718C1011.13 275.83 1011.83 288.191 1021.03 292.564ZM1136.04 336.975C1141.55 339.322 1148.37 338.26 1152.53 333.371C1163.62 320.289 1161.87 297.158 1147.26 287.366C1141.09 283.462 1133.11 286.155 1128.91 291.631C1119.93 303.359 1120.75 321.645 1130.41 332.675C1131.92 334.611 1133.88 336.057 1136.04 336.975ZM1088.99 285.698C1099.85 290.181 1113.16 289.24 1123.59 283.942C1135.16 277.518 1146 268.956 1153.45 257.881C1160.02 250.409 1157.49 237.616 1148.24 233.702C1137.22 228.755 1124.44 232.454 1113.11 228.414C1103.1 225.942 1096.71 217.531 1089.59 210.801C1083.67 204.717 1073.22 201.764 1066.31 208.011C1060.13 214.734 1060.87 224.954 1061.48 233.458C1063.92 247.872 1066.64 263.082 1075.47 275.117C1078.98 280.022 1083.69 283.508 1088.99 285.698Z" fill="black"/>
<path opacity="0.08" d="M332.16 131.051C332.421 131.118 332.692 131.177 332.963 131.227C344.033 132.23 352.855 122.57 356.349 112.903C359.986 104.255 359.133 91.6604 349.844 87.0155C348.491 86.3613 346.977 86.0888 345.482 86.0946C332.581 86.9035 323.518 99.5416 322.109 111.644C320.591 119.297 324.052 128.99 332.16 131.051ZM377.137 142.587C383.758 144.187 390.674 138.87 393.402 132.859C398.938 120.987 397.435 103.991 385.547 96.582C384.405 95.9927 383.159 95.6295 381.883 95.4912C372.743 94.6093 366.401 103.454 364.639 111.493C362.095 122.04 364.275 135.607 374.333 141.459C375.254 141.988 376.191 142.358 377.137 142.587ZM313.11 87.4988C324.672 89.865 335.524 80.5684 339.485 70.2335C343.046 62.9683 341.718 51.6191 333.157 48.6691C320.952 45.5599 309.16 56.3734 305.809 67.4989C303.051 74.7119 304.996 84.8856 313.11 87.4988ZM413.384 111.659C418.214 112.998 423.754 111.366 426.659 106.854C434.417 94.7823 430.422 75.7903 417.223 69.2799C411.671 66.7221 405.358 69.8338 402.47 74.8397C396.322 85.5544 399.014 100.63 408.239 108.713C409.71 110.152 411.494 111.135 413.384 111.659ZM368.716 74.3161C378.212 76.8388 389.145 74.5914 397.217 69.0478C406.1 62.4458 414.151 54.1503 419.112 44.1441C423.736 37.2232 420.226 26.8922 412.126 24.6652C402.437 21.7774 392.246 26.2526 382.405 24.1508C373.831 23.2033 367.608 16.9309 360.957 12.1349C355.378 7.74137 346.388 6.4435 341.347 12.3856C336.956 18.6429 338.701 27.037 340.138 34.0235C343.755 45.7081 347.685 58.023 356.336 67.0313C359.785 70.7124 364.078 73.0841 368.716 74.3161Z" fill="black"/>
<path opacity="0.08" d="M111.44 438.921C111.647 438.748 111.854 438.563 112.053 438.372C119.35 429.988 116.687 417.179 110.897 408.685C106.019 400.673 95.3105 393.987 86.1053 398.796C84.7828 399.509 83.6749 400.577 82.804 401.792C75.9037 412.723 80.8394 427.47 89.8232 435.701C95.1377 441.413 105.021 444.285 111.44 438.921ZM147.133 409.222C152.308 404.793 152.049 396.072 148.775 390.341C142.395 378.901 127.738 370.164 114.77 375.46C113.624 376.041 112.599 376.838 111.74 377.791C105.672 384.683 109.126 395.004 114.611 401.141C121.669 409.379 133.942 415.558 144.577 410.833C145.545 410.397 146.394 409.855 147.133 409.222ZM64.9822 428.853C73.6718 420.868 72.4926 406.627 66.4358 397.363C62.6326 390.222 52.6558 384.651 45.251 389.862C35.5823 397.934 37.4403 413.825 44.4955 423.057C48.7269 429.517 58.1119 433.899 64.9822 428.853ZM143.295 361.728C147.209 358.597 149.13 353.15 147.175 348.154C141.934 334.795 124.201 326.91 111.193 333.795C105.868 336.797 104.693 343.737 107.059 349.01C112.143 360.268 125.938 366.916 137.894 364.173C139.921 363.824 141.763 362.953 143.295 361.728ZM86.8648 376.062C94.4713 369.843 99.0534 359.664 99.2878 349.875C99.1393 338.808 97.1306 327.424 91.9258 317.543C89.0245 309.741 78.5954 306.535 72.0461 311.796C64.0306 317.958 61.6889 328.84 54.2216 335.585C48.4323 341.979 39.7035 343.35 31.9209 345.931C25.0918 347.881 18.7749 354.407 20.6382 361.973C23.1387 369.197 30.9643 372.699 37.4686 375.626C49.0581 379.538 61.3415 383.565 73.7098 381.829C78.7133 381.19 83.1501 379.099 86.8648 376.062Z" fill="black"/>
<path opacity="0.08" d="M182.921 855.428C183.247 855.511 183.585 855.585 183.923 855.647C197.731 856.899 208.737 844.848 213.095 832.788C217.632 822.001 216.569 806.289 204.981 800.495C203.294 799.679 201.404 799.339 199.539 799.346C183.446 800.355 172.14 816.121 170.382 831.218C168.489 840.765 172.807 852.856 182.921 855.428ZM239.027 869.819C247.287 871.815 255.915 865.181 259.318 857.684C266.224 842.874 264.349 821.671 249.519 812.429C248.095 811.694 246.54 811.241 244.948 811.068C233.546 809.968 225.635 821.001 223.437 831.03C220.264 844.187 222.983 861.111 235.53 868.411C236.679 869.072 237.848 869.533 239.027 869.819ZM159.156 801.098C173.579 804.05 187.117 792.453 192.059 779.56C196.501 770.497 194.844 756.339 184.165 752.659C168.939 748.781 154.229 762.27 150.049 776.149C146.609 785.147 149.035 797.838 159.156 801.098ZM284.245 831.237C290.27 832.908 297.182 830.871 300.805 825.243C310.483 810.184 305.499 786.492 289.034 778.371C282.108 775.18 274.232 779.062 270.63 785.306C262.96 798.672 266.318 817.478 277.827 827.562C279.661 829.357 281.887 830.584 284.245 831.237ZM228.522 784.653C240.368 787.8 254.008 784.997 264.077 778.081C275.159 769.845 285.201 759.497 291.39 747.015C297.158 738.381 292.78 725.494 282.676 722.715C270.589 719.113 257.875 724.696 245.599 722.074C234.904 720.892 227.141 713.067 218.844 707.084C211.884 701.604 200.67 699.984 194.381 707.397C188.904 715.203 191.081 725.674 192.873 734.39C197.386 748.966 202.288 764.328 213.08 775.566C217.382 780.158 222.737 783.116 228.522 784.653Z" fill="black"/>
<path opacity="0.08" d="M787.123 789.019C787.416 789.184 787.723 789.342 788.034 789.49C801.034 794.268 814.77 785.485 822.093 774.975C829.26 765.74 832.296 750.304 822.613 741.717C821.196 740.493 819.461 739.676 817.659 739.201C801.869 736.014 786.884 748.304 781.284 762.417C776.989 771.14 778.029 783.923 787.123 789.019ZM837.542 817.412C844.995 821.474 855.036 817.304 860.258 810.949C870.751 798.444 874.424 777.499 862.504 764.747C861.32 763.67 859.936 762.831 858.445 762.253C847.727 758.243 837.241 766.844 832.527 775.953C826.063 787.827 824.312 804.861 834.531 815.15C835.469 816.084 836.477 816.831 837.542 817.412ZM778.239 730.45C791.394 737.028 807.455 729.337 815.557 718.175C822.186 710.578 824.248 696.488 814.895 690.176C801.206 682.497 783.524 691.71 775.902 704.021C770.256 711.814 769.315 724.688 778.239 730.45ZM891.149 791.875C896.531 795.044 903.726 794.866 908.678 790.372C921.91 778.343 923.227 754.194 909.438 742.1C903.581 737.231 894.977 738.94 889.887 744.034C879.03 754.949 877.408 773.963 885.906 786.669C887.212 788.875 889.043 790.634 891.149 791.875ZM849.425 732.517C860.042 738.616 873.928 739.438 885.432 735.368C898.254 730.286 910.62 722.897 919.819 712.453C927.618 705.614 926.725 692.046 917.693 686.753C906.961 680.152 893.251 682.251 882.083 676.547C872.069 672.642 866.601 663.084 860.142 655.166C854.842 648.078 844.441 643.616 836.455 649.143C829.152 655.259 828.545 665.926 828.021 674.799C828.607 690.03 829.366 706.122 836.873 719.755C839.837 725.299 844.24 729.538 849.425 732.517Z" fill="black"/>
</svg>
