<svg width="101" height="27" viewBox="0 0 101 27" fill="none" xmlns="http://www.w3.org/2000/svg">
<path d="M101 1H1V26.2376H101V1Z" fill="black"/>
<path d="M1.15625 1.03125V26.3966H76.3047V1.03125H1.15625ZM21.9847 10.276L21.8604 11.2226C21.8079 11.5913 21.6425 11.739 21.2999 11.739H17.3648C16.9496 11.739 16.7622 11.8545 16.7106 12.2541L16.5548 13.422H20.9462C21.2684 13.422 21.3824 13.5802 21.3824 13.8012C21.3824 13.9162 21.3617 14.085 21.3518 14.1694L21.2265 15.1165C21.1746 15.4842 21.0087 15.6316 20.6658 15.6316H16.2646L16.0359 17.3892C15.9837 17.7577 15.8178 17.9054 15.4752 17.9054H14.115C13.793 17.9054 13.6687 17.7472 13.6687 17.5257C13.6687 17.4099 13.6997 17.2426 13.7106 17.1583L14.3853 12.0336C14.4367 11.6554 14.5098 11.3394 14.6028 11.0977C14.8731 10.4344 15.3922 9.96066 16.2124 9.70899C16.5964 9.59299 17.0842 9.52989 17.7901 9.52989H21.58C21.9017 9.52989 22.0157 9.68753 22.0157 9.90854C22.0157 10.0238 21.9953 10.1924 21.9847 10.276ZM25.891 10.276L24.9564 17.3885C24.9045 17.7572 24.7386 17.9049 24.3954 17.9049H23.0358C22.7135 17.9049 22.5887 17.7467 22.5887 17.5249C22.5887 17.4097 22.6205 17.2421 22.6306 17.1575L23.5647 10.0445C23.6171 9.67603 23.783 9.52912 24.1259 9.52912H25.4854C25.8076 9.52912 25.922 9.68676 25.922 9.90777C25.9223 10.0238 25.9011 10.1924 25.891 10.276ZM35.614 12.7273L35.0009 17.3885C34.9495 17.7572 34.7833 17.9049 34.4409 17.9049H33.0805C32.7593 17.9049 32.6342 17.7467 32.6342 17.5249C32.6342 17.4107 32.6652 17.2421 32.6753 17.1575L33.2673 12.6647C33.2779 12.5589 33.3087 12.3491 33.3087 12.2119C33.3087 11.9286 33.1639 11.739 32.7593 11.739H29.8206L29.0836 17.3885C29.0319 17.7572 28.8655 17.9049 28.5229 17.9049H27.163C26.8415 17.9049 26.7165 17.7467 26.7165 17.5249C26.7165 17.4107 26.748 17.2421 26.7583 17.1575L27.6927 10.045C27.7444 9.67629 27.9108 9.52937 28.2534 9.52937H32.6864C33.6314 9.52937 34.2854 9.68676 34.7417 9.98111C35.396 10.4129 35.6866 11.0864 35.6866 11.8647C35.6864 12.1698 35.6554 12.4225 35.614 12.7273ZM45.659 12.7273L45.0461 17.3885C44.9947 17.7572 44.8278 17.9049 44.4854 17.9049H43.1255C42.8035 17.9049 42.679 17.7467 42.679 17.5249C42.679 17.4107 42.71 17.2421 42.7206 17.1575L43.3125 12.6647C43.3234 12.5589 43.3541 12.3491 43.3541 12.2119C43.3541 11.9286 43.2089 11.739 42.804 11.739H39.8655L39.1291 17.3885C39.0769 17.7572 38.9105 17.9049 38.5684 17.9049H37.2082C36.8865 17.9049 36.7619 17.7467 36.7619 17.5249C36.7619 17.4107 36.7927 17.2421 36.8033 17.1575L37.7382 10.045C37.7901 9.67629 37.9555 9.52937 38.2986 9.52937H42.7319C43.6763 9.52937 44.3298 9.68676 44.7869 9.98111C45.4407 10.4129 45.7319 11.0864 45.7319 11.8647C45.7316 12.1698 45.7001 12.4225 45.659 12.7273ZM50.1077 10.276L49.1733 17.3885C49.1209 17.7572 48.9552 17.9049 48.6129 17.9049H47.2522C46.9307 17.9049 46.8062 17.7467 46.8062 17.5249C46.8062 17.4097 46.8377 17.2421 46.8475 17.1575L47.7821 10.0445C47.8338 9.67603 48 9.52912 48.3423 9.52912H49.7028C50.0247 9.52912 50.1387 9.68676 50.1387 9.90777C50.1389 10.0238 50.118 10.1924 50.1077 10.276ZM59.8307 12.7273L59.2183 17.3885C59.1664 17.7572 59.0002 17.9049 58.6576 17.9049H57.2971C56.9762 17.9049 56.8509 17.7467 56.8509 17.5249C56.8509 17.4107 56.8819 17.2421 56.8927 17.1575L57.4842 12.6647C57.4951 12.5589 57.5256 12.3491 57.5256 12.2119C57.5256 11.9286 57.3808 11.739 56.9759 11.739H54.0377L53.301 17.3885C53.2483 17.7572 53.083 17.9049 52.7401 17.9049H51.3799C51.0579 17.9049 50.9331 17.7467 50.9331 17.5249C50.9331 17.4107 50.9644 17.2421 50.9745 17.1575L51.9098 10.045C51.9613 9.67629 52.1274 9.52937 52.4703 9.52937H56.9031C57.848 9.52937 58.502 9.68676 58.9586 9.98111C59.6129 10.4129 59.9033 11.0864 59.9033 11.8647C59.9036 12.1698 59.8731 12.4225 59.8307 12.7273ZM69.7937 10.2668L69.6687 11.2147C69.6165 11.5834 69.4506 11.7308 69.108 11.7308H64.5332C64.1172 11.7308 63.9302 11.8468 63.8785 12.2469L63.5359 14.86C63.5152 14.9857 63.5051 15.1451 63.5051 15.2386C63.5051 15.5131 63.6284 15.6917 63.9831 15.6917H66.7585L66.8727 14.7325H65.5526C65.2306 14.7325 65.1161 14.5748 65.1161 14.3543C65.1161 14.2381 65.1366 14.0695 65.1479 13.9854L65.2407 13.3216C65.2929 12.9524 65.4585 12.8055 65.8024 12.8055H68.9932C69.3152 12.8055 69.44 12.9631 69.44 13.1846C69.44 13.2792 69.4095 13.4905 69.3989 13.5848L68.9 17.3877C68.8483 17.7567 68.6819 17.9043 68.338 17.9043H63.9415C63.0581 17.9043 62.4341 17.7564 62.0083 17.4715C61.384 17.0716 61.1037 16.4395 61.1037 15.7019C61.1037 15.4075 61.1344 15.1758 61.1768 14.8802L61.5509 12.0259C61.6029 11.6465 61.6752 11.3302 61.7687 11.0882C62.039 10.4244 62.5586 9.95019 63.3803 9.69749C63.765 9.5815 64.2539 9.51813 64.9608 9.51813H69.3886C69.7113 9.51813 69.825 9.67654 69.825 9.89679C69.8245 10.0143 69.8043 10.1824 69.7937 10.2668Z" fill="#FEC524" stroke="#FEC524" stroke-miterlimit="10"/>
<path d="M82.8867 20.0229H94.7903L88.9419 15.0566L82.8867 20.0229Z" fill="white"/>
<path d="M81.1716 17.4338C81.1716 17.7731 81.4172 18.0495 81.7523 18.0495C82.0838 18.0495 82.3548 17.7731 82.3548 17.4338V15.0683H84.7575V16.8139C84.7575 17.2304 84.6847 17.6908 84.2402 18.0616L81.8564 20.022H81.1089C79.7545 20.022 78.6953 18.9993 78.6953 17.6428V10.6429C78.6953 9.27573 79.5276 8.14844 81.7301 8.14844C83.8749 8.14844 84.7573 9.27369 84.7573 10.6414V13.1109H82.3546V10.729C82.3647 10.4268 82.0982 10.1789 81.7999 10.1728C81.5833 10.168 81.1938 10.3634 81.1938 10.7449L81.1716 17.4338Z" fill="white"/>
<path d="M92.7393 17.5063L90.6193 8.39062H87.2706L85.3164 17.2618L88.9447 14.292L92.7393 17.5063ZM88.9444 10.3695L89.5946 13.721H88.2977L88.9444 10.3695Z" fill="white"/>
<path d="M99.2536 8.27539C98.8504 8.27539 98.5312 8.59605 98.5312 8.99591C98.5312 9.39731 98.8507 9.72487 99.2536 9.72487C99.6469 9.72487 99.9613 9.39731 99.9613 8.99591C99.9613 8.5963 99.6466 8.27539 99.2536 8.27539ZM99.2536 9.59559C98.9248 9.59559 98.6586 9.32986 98.6586 8.99591C98.6586 8.66989 98.9253 8.40263 99.2536 8.40263C99.5765 8.40263 99.8423 8.66989 99.8423 8.99591C99.8423 9.32986 99.5768 9.59559 99.2536 9.59559Z" fill="white"/>
<path d="M92.0586 10.6481H93.7178V18.337L95.6856 20.0083H96.3951V10.6481H98.0603V8.37891H92.0586V10.6481Z" fill="white"/>
<path d="M99.3801 8.99763V8.99252C99.4973 8.97233 99.5523 8.8967 99.5523 8.79808C99.5523 8.60108 99.3942 8.5625 99.2424 8.5625H98.9648V9.41078H99.0962V9.04822H99.2089C99.2533 9.04949 99.2964 9.04822 99.3297 9.08143C99.3695 9.11848 99.3695 9.18721 99.3798 9.25773C99.3876 9.31139 99.3972 9.36556 99.4061 9.41078H99.5765C99.547 9.33515 99.5374 9.24623 99.5248 9.16549C99.5107 9.07632 99.5006 9.01935 99.3801 8.99763ZM99.2381 8.91408H99.0965V8.69536H99.2578C99.3617 8.69536 99.3917 8.72909 99.3917 8.78939C99.3914 8.85838 99.3614 8.90514 99.2381 8.91408Z" fill="white"/>
<path d="M94.7903 20.0249L88.9419 15.0586L82.8867 20.0249H94.7903Z" fill="#FEC524" stroke="#FEC524" stroke-miterlimit="10"/>
</svg>
