<svg width="100" height="38" viewBox="0 0 100 38" fill="none" xmlns="http://www.w3.org/2000/svg">
<path d="M49.9996 0C22.2468 0 0 8.26485 0 18.6271C0 28.9262 22.4301 37.2549 49.9996 37.2549C77.5698 37.2549 100 28.8983 100 18.6271C100 8.3559 77.5698 0 49.9996 0Z" fill="#003478"/>
<path d="M69.6942 22.5742C69.7076 22.6595 69.8203 22.7412 69.9294 22.7799C69.9697 22.7932 69.9894 22.8199 69.9473 22.9105C69.636 23.5735 69.3498 23.9558 68.9595 24.5318C68.6004 25.0641 68.196 25.4794 67.7064 25.8788C66.9679 26.486 65.9423 27.1469 65.0945 26.7026C64.7179 26.5085 64.5549 25.9847 64.5622 25.5608C64.5801 24.3686 65.1139 23.1447 66.0996 21.9418C67.3013 20.472 68.6297 19.7096 69.5016 20.1263C70.4036 20.5538 70.1157 21.5914 69.7117 22.4058C69.6804 22.4689 69.6805 22.5222 69.6939 22.5737L69.6942 22.5742ZM79.3735 13.2847C79.4384 13.171 79.3701 13.0879 79.2255 13.0879C78.4721 13.0879 77.4836 13.0896 76.6986 13.0896C76.5116 13.0896 76.415 13.1118 76.3269 13.2851C76.0371 13.8366 72.506 19.0946 71.8487 20.1156C71.7378 20.2711 71.6027 20.2493 71.5871 20.0711C71.5204 19.4647 70.9933 18.7676 70.1628 18.434C69.5298 18.179 68.9111 18.1327 68.2677 18.2176C67.1063 18.3727 66.0716 18.9813 65.1619 19.6679C63.7909 20.7034 62.6079 22.0456 61.0809 23.0374C60.2473 23.5772 59.1057 24.0481 58.3419 23.3453C57.6506 22.7085 57.7287 21.2942 58.7864 20.2003C58.8977 20.0857 59.0314 20.1825 59.0104 20.2842C58.9107 20.7789 59.0328 21.2709 59.4111 21.6159C59.8726 22.0269 60.533 22.0733 61.0982 21.7989C61.7652 21.4705 62.1572 20.8365 62.2714 20.1169C62.4481 19.0006 61.5833 18.0161 60.501 17.9371C59.6219 17.8758 58.7789 18.1797 57.9574 18.8533C57.5455 19.1928 57.3116 19.4436 56.9554 19.9469C56.8686 20.0708 56.7353 20.0832 56.7393 19.9001C56.7796 18.471 56.1852 17.6669 54.996 17.6407C54.0728 17.6185 53.0867 18.1163 52.318 18.7252C51.4754 19.3976 50.7386 20.2886 49.9487 21.1258C49.8503 21.2289 49.7649 21.224 49.7371 21.024C49.7148 20.0771 49.4737 19.1599 49.0327 18.5086C48.8766 18.282 48.548 18.17 48.272 18.3228C48.1445 18.3921 47.7012 18.5948 47.3783 18.853C47.2182 18.9841 47.1555 19.1739 47.2266 19.4171C47.6524 20.8318 47.5589 22.4402 46.9811 23.7987C46.4506 25.043 45.4197 26.1651 44.208 26.5449C43.4098 26.7964 42.58 26.6734 42.0665 25.9702C41.3613 24.9999 41.646 23.3123 42.6973 21.9111C43.625 20.6772 44.967 19.8934 46.3055 19.3887C46.4629 19.3283 46.4956 19.2279 46.4509 19.095C46.3784 18.8764 46.2621 18.5786 46.2151 18.4428C46.0922 18.1179 45.7485 18.0655 45.3287 18.1108C44.3562 18.2232 43.4788 18.5543 42.6122 19.0153C40.3429 20.2227 39.2051 22.5594 38.7065 23.8096C38.4663 24.4101 38.261 24.7847 37.9957 25.1169C37.638 25.5636 37.1888 25.9704 36.3677 26.6869C36.2934 26.7527 36.238 26.8895 36.3006 27.017C36.3842 27.1894 36.8114 27.7887 36.9318 27.8422C37.0656 27.9075 37.2207 27.8155 37.2829 27.7719C37.8575 27.3849 38.545 26.7715 38.8814 26.3555C38.9995 26.2129 39.1207 26.2729 39.1833 26.4893C39.4973 27.6021 40.3193 28.5108 41.4561 28.8909C43.5369 29.5881 45.6951 28.579 47.3242 26.8222C48.3596 25.7055 48.7332 24.9873 49.1301 24.4992C49.8026 23.6713 51.1293 21.8193 52.7094 20.6302C53.2889 20.1916 53.9745 19.8571 54.3194 20.0793C54.5962 20.2575 54.6857 20.6715 54.2416 21.4739C52.6305 24.3968 50.2602 27.8308 49.8255 28.6636C49.7458 28.808 49.8165 28.9217 49.9677 28.9217C50.8107 28.9176 51.6464 28.9197 52.4116 28.9197C52.5391 28.9152 52.596 28.8557 52.6599 28.7664C53.8963 26.8436 55.0598 25.0135 56.3069 23.1214C56.3767 23.0099 56.4411 23.0947 56.4438 23.1436C56.4706 23.5826 56.5779 24.183 56.8404 24.5773C57.3119 25.3062 57.9799 25.6195 58.7209 25.6243C59.3104 25.6331 59.6087 25.542 60.2445 25.3061C60.7618 25.1154 61.177 24.8653 61.4958 24.6389C61.6818 24.51 61.7144 24.7256 61.71 24.7584C61.4237 26.2849 61.7771 28.0935 63.304 28.8435C65.1314 29.7386 67.1389 28.4804 68.2941 27.3446C68.4072 27.2353 68.5284 27.2468 68.54 27.4828C68.5669 27.9164 68.7619 28.431 69.123 28.7912C70.091 29.7564 72.0444 29.3738 74.0047 27.8664C75.2633 26.9012 76.5802 25.5376 77.7698 24.0936C77.8145 24.0376 77.8467 23.9478 77.7608 23.8567C77.5797 23.6683 77.3176 23.4528 77.138 23.2869C77.0561 23.2176 76.9359 23.2375 76.867 23.2893C75.6476 24.4414 74.55 25.7554 72.9636 26.842C72.4286 27.213 71.5759 27.5123 71.1929 26.9971C71.0435 26.7971 71.0605 26.5207 71.2063 26.1577C71.6688 25.0118 78.9917 13.9348 79.3719 13.2815" fill="white"/>
<path d="M44.9217 14.6203C44.953 14.7847 45.0175 14.8167 45.0926 14.803C45.4656 14.7288 45.8738 14.4239 46.1155 14.0706C46.3355 13.7502 46.4388 13.2879 46.2201 13.1026C46.0251 12.936 45.7076 12.9831 45.4722 13.1897C45.0035 13.6012 44.8612 14.185 44.9216 14.6206L44.9217 14.6203ZM26.2575 28.8792C23.5271 28.8969 21.1216 27.2216 20.8456 24.3195C20.6922 22.7113 21.1497 21.278 22.0657 20.0972C22.8785 19.0451 24.2538 18.171 25.418 17.9574C25.7968 17.8885 26.3058 17.9308 26.5162 18.1814C26.8463 18.5631 26.7514 18.9823 26.4214 19.1496C25.5332 19.6001 24.4645 20.3715 23.9357 21.4246C23.5068 22.2843 23.4201 23.3202 24.0753 24.3071C25.1717 25.9519 28.2282 25.9971 31.07 23.374C31.7739 22.7321 32.4037 22.1153 33.0439 21.3846C34.2956 19.9627 34.7119 19.4446 36.3757 17.1517C36.3936 17.125 36.4025 17.0903 36.3936 17.0734C36.3802 17.0423 36.3579 17.0379 36.3082 17.0334C35.1975 17.0645 34.2291 17.3929 33.2879 18.0918C33.0168 18.2882 32.6267 18.2606 32.4559 18.002C32.2658 17.7097 32.4023 17.329 32.7149 17.1141C34.2291 16.0679 35.8831 15.8781 37.5723 15.5949C37.5709 15.5949 37.6895 15.5993 37.7861 15.4731C38.4795 14.589 39.0031 13.7914 39.7422 12.8973C40.487 11.9901 41.4491 11.157 42.1841 10.5312C43.2101 9.65471 43.8681 9.35975 44.5368 8.99824C44.713 8.9067 44.5145 8.79741 44.4608 8.79741C40.7273 8.10024 36.8466 7.1981 33.1388 8.56187C30.5708 9.51396 29.4455 11.5372 29.9868 12.8891C30.3718 13.8481 31.6413 14.0039 32.8298 13.4261C33.8168 12.9456 34.7303 12.1712 35.3779 11.1742C35.7401 10.6206 36.5035 11.02 36.0911 11.9814C35.006 14.5151 32.9332 16.5249 30.4083 16.6098C28.2595 16.6791 26.873 15.1085 26.8776 13.1709C26.8865 9.34907 31.1687 6.83158 35.6692 6.45522C41.089 6.01021 46.2225 7.44458 51.6038 8.09309C55.7269 8.58915 59.6798 8.59947 63.8241 7.6536C64.314 7.54785 64.6577 7.85844 64.6258 8.35006C64.5856 9.06069 64.0314 9.7451 62.6665 10.4847C61.1141 11.3306 59.4902 11.5872 57.7941 11.601C53.6929 11.6365 49.8726 10.0466 45.9194 9.19317C45.9238 9.36513 45.9695 9.56993 45.8246 9.67849C43.6348 11.2832 41.6554 12.9129 40.3297 15.2017C40.285 15.2546 40.3074 15.3048 40.3865 15.2995C41.5375 15.2386 42.5726 15.2092 43.6472 15.1239C43.835 15.1062 43.8421 15.0617 43.8255 14.9258C43.7303 14.1368 43.9624 13.2372 44.6609 12.6183C45.3758 11.9815 46.2709 11.9091 46.8643 12.3678C47.5389 12.89 47.4792 13.8293 47.1103 14.5337C46.7346 15.2485 46.1142 15.6307 45.5187 15.8163C45.5187 15.8163 45.3935 15.843 45.4122 15.9559C45.4346 16.1363 46.247 16.5829 46.3164 16.7019C46.3835 16.8152 46.3477 16.9908 46.2256 17.1254C46.1398 17.2232 46.0051 17.3147 45.833 17.3116C45.6939 17.3089 45.6094 17.261 45.4314 17.1654C45.0673 16.9695 44.6123 16.6473 44.3088 16.2675C44.2055 16.1391 44.1527 16.1364 43.8947 16.1506C42.7319 16.2173 40.9188 16.3915 39.6904 16.5439C39.3925 16.5794 39.3487 16.6358 39.2874 16.7385C37.3288 19.9473 35.2376 23.4076 32.9415 25.7244C30.4788 28.2084 28.4317 28.8624 26.2585 28.8794" fill="white"/>
<path d="M49.9978 3.04478C24.466 3.04478 3.77057 10.0544 3.77057 18.6319C3.77057 27.21 24.466 34.2202 49.9978 34.2202C75.5292 34.2202 96.2234 27.21 96.2234 18.6319C96.2234 10.0544 75.5292 3.04478 49.9978 3.04478ZM49.9978 35.6328C23.5366 35.6328 2.08594 28.0213 2.08594 18.6319C2.08594 9.24101 23.5366 1.63086 49.9978 1.63086C76.4566 1.63086 97.9059 9.24101 97.9059 18.6319C97.9059 28.0213 76.4566 35.6328 49.9978 35.6328Z" fill="white"/>
</svg>
