<svg width="100" height="27" viewBox="0 0 100 27" fill="none" xmlns="http://www.w3.org/2000/svg">
<path d="M36.5066 20.7207H32.875V26.4891H33.9657V24.0547H36.5066C38.2604 24.0547 38.9013 23.1467 38.9013 22.3435C38.9013 21.4116 38.0021 20.7207 36.5066 20.7207ZM36.1356 23.3876H33.9657V21.3868H36.1805C37.0802 21.3868 37.7772 21.6203 37.7772 22.3514C37.7772 23.1303 37.1136 23.3876 36.1356 23.3876Z" fill="black"/>
<path d="M55.3863 26.4478H54.1553L52.5089 24.1076C52.4883 24.0775 52.4481 24.0621 52.4068 24.0547H52.4608C52.4433 24.0515 52.4253 24.0505 52.4068 24.0547H50.1962V26.4891H49.1055V20.7207H52.737C54.2321 20.7207 55.1318 21.4116 55.1318 22.343C55.1318 23.0069 54.6915 23.7413 53.5483 23.9758L55.3863 26.4478ZM50.1962 23.3881H52.3666C53.3446 23.3881 54.0082 23.1308 54.0082 22.352C54.0082 21.6208 53.3112 21.3873 52.4115 21.3873H50.1962V23.3881Z" fill="black"/>
<path d="M42.5525 20.7207L39.1914 26.4891H40.4367L41.3702 24.8097H44.9552L45.839 26.4891H47.1589L43.9222 20.7207H42.5525ZM41.7433 24.1188L43.1749 21.58H43.1998L44.5191 24.1188H41.7433Z" fill="black"/>
<path d="M65.8501 23.3819L63.6274 23.0033C63.1722 22.9239 62.706 22.7624 62.706 22.2721C62.706 21.3975 63.8221 21.2609 64.4837 21.2609C65.3622 21.2609 66.3598 21.542 66.4132 22.4336H67.4002C67.3568 21.7988 67.0853 20.5938 64.3646 20.5938C62.4784 20.5938 61.6862 21.4769 61.6862 22.3764C61.6862 23.3813 62.8356 23.6461 63.3453 23.734L64.9393 24.0082C66.2179 24.2327 66.5979 24.426 66.5979 25.028C66.5979 25.8555 65.3188 26 64.5593 26C63.5617 26 62.4128 25.6951 62.4128 24.6505H61.4258C61.4258 25.1894 61.556 25.6712 62.2175 26.1128C62.5641 26.3452 63.1283 26.6672 64.5699 26.6672C65.9036 26.6672 67.6167 26.2897 67.6167 24.9237C67.6172 24.0088 66.8578 23.5587 65.8501 23.3819Z" fill="black"/>
<path d="M58.976 20.6875H57.9414V21.7226H58.976V20.6875Z" fill="black"/>
<path d="M58.9844 22.334H57.9492V26.4569H58.9844V22.334Z" fill="black"/>
<path d="M64.6461 10.2608V8.66395H56.6166V4.01638H67.3075V2.44336H54.4023V16.8843H67.3075V15.3081H56.6166V10.2608H64.6461Z" fill="black"/>
<path d="M64.8482 0.111328H61.1113L59.3633 2.07454L64.8482 0.111328Z" fill="black"/>
<path d="M99.9986 15.3081H88.9711V2.44336H86.9531V16.8843H99.9986V15.3081Z" fill="black"/>
<path d="M75.6698 2.44336L68.332 16.8843H70.812L72.6902 13.1469H81.4907L83.3848 16.8843H85.8394L78.4953 2.44336H75.6698ZM73.6185 11.3393L77.0759 4.44047L80.5762 11.3393H73.6185Z" fill="black"/>
<path d="M47.4005 10.8474C50.7061 9.9643 51.0284 7.50074 51.0125 6.62237C50.8145 4.04232 49.0782 2.44336 45.9547 2.44336H36.8594V16.8843H38.9334V10.8278H44.8539L49.2099 16.8843H51.8233C51.8243 16.8843 48.6908 12.808 47.4005 10.8474ZM45.6721 9.11982H38.9339V4.15351H45.9081C47.5127 4.15351 48.4161 4.90322 48.7416 5.85518C48.9564 6.50907 48.8183 7.36626 48.4637 7.94919C47.8805 8.91545 46.7734 9.11982 45.6721 9.11982Z" fill="black"/>
<path d="M24.3967 0C18.544 0 14.5547 4.12818 14.5547 9.12732C14.5547 14.3891 18.9621 18.1016 24.3967 18.1016C29.8308 18.1016 34.2356 14.442 34.2356 9.12732C34.2356 4.12818 30.1965 0 24.3967 0ZM24.3274 16.3105C20.2772 16.3105 16.9404 13.0543 16.9404 9.13156C16.9404 5.21304 20.1206 1.80121 24.4835 1.80121C28.7406 1.80121 31.8683 5.21251 31.8683 9.13156C31.8688 13.0543 28.376 16.3105 24.3274 16.3105Z" fill="black"/>
<path d="M10.8282 7.55157L13.5447 2.44336H11.3584L9.33203 7.55157H10.8282Z" fill="black"/>
<path d="M13.0454 15.3081H2.01794V2.44336H0V16.8843H13.0454V15.3081Z" fill="black"/>
</svg>
