<svg width="65" height="50" viewBox="0 0 65 50" fill="none" xmlns="http://www.w3.org/2000/svg">
<path d="M63.0784 49.3217V49.4518H63.1986C63.2252 49.4518 63.248 49.4455 63.2644 49.4354C63.2796 49.4253 63.2885 49.4076 63.2885 49.3861C63.2885 49.3647 63.2796 49.3483 63.2644 49.3381C63.248 49.3268 63.2252 49.3217 63.1986 49.3217H63.0784ZM63.1999 49.2308C63.2619 49.2308 63.31 49.2447 63.3441 49.2725C63.3783 49.3003 63.3948 49.3381 63.3948 49.3861C63.3948 49.4266 63.3821 49.4594 63.3543 49.4859C63.3277 49.5112 63.2897 49.5276 63.2391 49.5339L63.3986 49.7171H63.2745L63.1265 49.5352H63.0784V49.7171H62.9746V49.2308H63.1999ZM63.1682 49.8851C63.2252 49.8851 63.2783 49.8737 63.3264 49.8522C63.3758 49.8307 63.4188 49.8017 63.4555 49.7651C63.4922 49.7284 63.5213 49.6855 63.5428 49.635C63.5631 49.5857 63.5745 49.5327 63.5745 49.4758C63.5745 49.419 63.5631 49.3659 63.5428 49.3167C63.5213 49.2674 63.4922 49.2232 63.4555 49.1866C63.4188 49.15 63.3758 49.1209 63.3264 49.0994C63.2783 49.0792 63.2252 49.0691 63.1682 49.0691C63.1113 49.0691 63.0569 49.0792 63.0075 49.0994C62.9569 49.1209 62.9126 49.15 62.8759 49.1866C62.8392 49.2232 62.8101 49.2674 62.7898 49.3167C62.7683 49.3659 62.7582 49.419 62.7582 49.4758C62.7582 49.5327 62.7683 49.5857 62.7898 49.635C62.8101 49.6855 62.8392 49.7284 62.8759 49.7651C62.9126 49.8017 62.9569 49.8307 63.0075 49.8522C63.0569 49.8737 63.1113 49.8851 63.1682 49.8851ZM63.1682 48.9516C63.2429 48.9516 63.3112 48.9655 63.3771 48.9933C63.4416 49.0199 63.4973 49.0577 63.5466 49.1057C63.5947 49.1525 63.6327 49.2081 63.6605 49.2725C63.6884 49.3356 63.7023 49.4038 63.7023 49.4758C63.7023 49.5478 63.6884 49.616 63.6605 49.6792C63.6327 49.7423 63.5947 49.7979 63.5466 49.8459C63.4973 49.8926 63.4416 49.9305 63.3771 49.9583C63.3112 49.9861 63.2429 50 63.1682 50C63.0923 50 63.0227 49.9861 62.9569 49.9583C62.8911 49.9305 62.8341 49.8926 62.786 49.8459C62.7379 49.7979 62.7 49.7423 62.6721 49.6792C62.6443 49.616 62.6303 49.5478 62.6303 49.4758C62.6303 49.4038 62.6443 49.3356 62.6721 49.2725C62.7 49.2081 62.7379 49.1525 62.786 49.1057C62.8341 49.0577 62.8911 49.0199 62.9569 48.9933C63.0227 48.9655 63.0923 48.9516 63.1682 48.9516ZM13.8591 47.0785C13.8591 46.1514 14.4678 45.3898 15.4626 45.3898C16.413 45.3898 17.0547 46.1186 17.0547 47.0785C17.0547 48.0384 16.413 48.7672 15.4626 48.7672C14.4678 48.7672 13.8591 48.0056 13.8591 47.0785ZM18.1381 47.0785V44.4412H16.9889V45.0816C16.6244 44.6067 16.0713 44.3086 15.3196 44.3086C13.8375 44.3086 12.6757 45.4681 12.6757 47.0785C12.6757 48.6902 13.8375 49.8484 15.3196 49.8484C16.0713 49.8484 16.6244 49.5503 16.9889 49.0754V49.7158H18.1381V47.0785ZM56.9718 47.0785C56.9718 46.1514 57.5806 45.3898 58.5754 45.3898C59.5271 45.3898 60.1675 46.1186 60.1675 47.0785C60.1675 48.0384 59.5271 48.7672 58.5754 48.7672C57.5806 48.7672 56.9718 48.0056 56.9718 47.0785ZM61.2521 47.0785V42.323H60.1017V45.0816C59.7372 44.6067 59.1841 44.3086 58.4323 44.3086C56.9503 44.3086 55.7885 45.4681 55.7885 47.0785C55.7885 48.6902 56.9503 49.8484 58.4323 49.8484C59.1841 49.8484 59.7372 49.5503 60.1017 49.0754V49.7158H61.2521V47.0785ZM32.4027 45.3355C33.1431 45.3355 33.6189 45.799 33.7404 46.615H30.9979C31.1206 45.8533 31.5838 45.3355 32.4027 45.3355ZM32.4255 44.3086C30.8764 44.3086 29.793 45.434 29.793 47.0785C29.793 48.7559 30.9207 49.8484 32.5027 49.8484C33.2987 49.8484 34.0277 49.6501 34.6694 49.1095L34.1062 48.2595C33.6632 48.6119 33.0988 48.8114 32.5685 48.8114C31.8281 48.8114 31.1535 48.4692 30.9877 47.5193H34.9124C34.9238 47.3766 34.9351 47.2326 34.9351 47.0785C34.9238 45.434 33.9062 44.3086 32.4255 44.3086ZM46.3015 47.0785C46.3015 46.1514 46.9103 45.3898 47.9051 45.3898C48.8555 45.3898 49.4972 46.1186 49.4972 47.0785C49.4972 48.0384 48.8555 48.7672 47.9051 48.7672C46.9103 48.7672 46.3015 48.0056 46.3015 47.0785ZM50.5805 47.0785V44.4412H49.4314V45.0816C49.0656 44.6067 48.5138 44.3086 47.762 44.3086C46.28 44.3086 45.1182 45.4681 45.1182 47.0785C45.1182 48.6902 46.28 49.8484 47.762 49.8484C48.5138 49.8484 49.0656 49.5503 49.4314 49.0754V49.7158H50.5805V47.0785ZM39.8115 47.0785C39.8115 48.6788 40.9278 49.8484 42.6313 49.8484C43.4273 49.8484 43.9576 49.6716 44.5322 49.2194L43.9804 48.2923C43.5488 48.6018 43.0958 48.7672 42.5971 48.7672C41.6795 48.7559 41.005 48.094 41.005 47.0785C41.005 46.063 41.6795 45.4011 42.5971 45.3898C43.0958 45.3898 43.5488 45.5552 43.9804 45.8647L44.5322 44.9376C43.9576 44.4854 43.4273 44.3086 42.6313 44.3086C40.9278 44.3086 39.8115 45.4782 39.8115 47.0785ZM54.6279 44.3086C53.9648 44.3086 53.5332 44.618 53.2345 45.0816V44.4412H52.0955V49.7158H53.2459V46.759C53.2459 45.8862 53.6218 45.4011 54.3736 45.4011C54.6064 45.4011 54.8494 45.434 55.0924 45.5338L55.4468 44.4526C55.1924 44.3528 54.8608 44.3086 54.6279 44.3086ZM23.8219 44.8606C23.2688 44.4968 22.5069 44.3086 21.6666 44.3086C20.3276 44.3086 19.4657 44.949 19.4657 45.9973C19.4657 46.8575 20.1073 47.388 21.2894 47.5534L21.8324 47.6305C22.4626 47.7189 22.76 47.8844 22.76 48.1824C22.76 48.5904 22.3399 48.8228 21.5552 48.8228C20.7591 48.8228 20.1845 48.5689 19.7973 48.2709L19.2556 49.1638C19.8859 49.6274 20.6819 49.8484 21.5438 49.8484C23.0701 49.8484 23.9548 49.131 23.9548 48.1269C23.9548 47.1998 23.2587 46.7147 22.1083 46.5493L21.5666 46.471C21.0692 46.4053 20.6705 46.3068 20.6705 45.9531C20.6705 45.5666 21.0464 45.3355 21.6767 45.3355C22.3513 45.3355 23.0043 45.5893 23.3245 45.7876L23.8219 44.8606ZM38.6497 44.3086C37.9865 44.3086 37.5549 44.618 37.2575 45.0816V44.4412H36.1185V49.7158H37.2677V46.759C37.2677 45.8862 37.6435 45.4011 38.3953 45.4011C38.6282 45.4011 38.8712 45.434 39.1142 45.5338L39.4685 44.4526C39.2142 44.3528 38.8826 44.3086 38.6497 44.3086ZM28.8425 44.4412H26.9631V42.8409H25.8013V44.4412H24.7293V45.4896H25.8013V47.8957C25.8013 49.1196 26.2772 49.8484 27.6364 49.8484C28.1351 49.8484 28.7096 49.6943 29.0741 49.4405L28.7425 48.4578C28.3996 48.6561 28.0237 48.7559 27.725 48.7559C27.1504 48.7559 26.9631 48.4022 26.9631 47.873V45.4896H28.8425V44.4412ZM11.6594 49.7158V46.4053C11.6594 45.1586 10.8634 44.32 9.58005 44.3086C8.90548 44.2972 8.2094 44.5069 7.72214 45.2471C7.35765 44.6623 6.78306 44.3086 5.97561 44.3086C5.41115 44.3086 4.85935 44.4741 4.42778 45.0917V44.4412H3.27734V49.7158H4.4379V46.7918C4.4379 45.8761 4.94667 45.3898 5.73261 45.3898C6.49577 45.3898 6.88178 45.8862 6.88178 46.7804V49.7158H8.0436V46.7918C8.0436 45.8761 8.57389 45.3898 9.33705 45.3898C10.1217 45.3898 10.4976 45.8862 10.4976 46.7804V49.7158H11.6594Z" fill="#231F20"/>
<path d="M63.7863 32.1738V31.4034H63.5851L63.3522 31.9326L63.1206 31.4034H62.9181V32.1738H63.0611V31.5928L63.2788 32.0943H63.4269L63.6446 31.5916V32.1738H63.7863ZM62.5093 32.1738V31.5347H62.7675V31.4046H62.1094V31.5347H62.3676V32.1738H62.5093Z" fill="#F79410"/>
<path d="M40.905 35.4883H23.4883V4.25H40.905V35.4883Z" fill="#FF5F00"/>
<path d="M24.6033 19.8675C24.6033 13.5307 27.5762 7.88597 32.2058 4.24832C28.8203 1.58829 24.5476 0.000608057 19.9041 0.000608057C8.91111 0.000608057 0 8.89517 0 19.8675C0 30.8398 8.91111 39.7344 19.9041 39.7344C24.5476 39.7344 28.8203 38.1467 32.2058 35.4867C27.5762 31.849 24.6033 26.2043 24.6033 19.8675Z" fill="#EB001B"/>
<path d="M64.3946 19.8675C64.3946 30.8398 55.4835 39.7344 44.4904 39.7344C39.8469 39.7344 35.5743 38.1467 32.1875 35.4867C36.8183 31.849 39.7912 26.2043 39.7912 19.8675C39.7912 13.5307 36.8183 7.88597 32.1875 4.24832C35.5743 1.58829 39.8469 0.000608057 44.4904 0.000608057C55.4835 0.000608057 64.3946 8.89517 64.3946 19.8675Z" fill="#F79E1B"/>
</svg>
